<svg xmlns="http://www.w3.org/2000/svg" viewBox="0 0 246 153.72"><defs><style>.cls-1{fill:#03ae92;}</style></defs><title>Recurso 1</title><g id="Capa_2" data-name="Capa 2"><g id="Capa_1-2" data-name="Capa 1"><line class="cls-1" x1="9.5" y1="9.5" x2="236.5" y2="9.5"/><path class="cls-1" d="M236.5,19H9.5a9.5,9.5,0,0,1,0-19h227a9.5,9.5,0,0,1,0,19Z"/><line class="cls-1" x1="9.5" y1="76.86" x2="236.5" y2="76.86"/><path class="cls-1" d="M236.5,86.36H9.5a9.5,9.5,0,0,1,0-19h227a9.5,9.5,0,0,1,0,19Z"/><line class="cls-1" x1="9.5" y1="144.22" x2="236.5" y2="144.22"/><path class="cls-1" d="M236.5,153.72H9.5a9.5,9.5,0,0,1,0-19h227a9.5,9.5,0,0,1,0,19Z"/></g></g></svg>