<?xml version="1.0" encoding="utf-8"?>
<!-- Generator: Adobe Illustrator 25.2.3, SVG Export Plug-In . SVG Version: 6.00 Build 0)  -->
<svg version="1.1"
	 id="svg25" inkscape:version="1.1.2 (0a00cf5339, 2022-02-04)" sodipodi:docname="logo.svg" xmlns:inkscape="http://www.inkscape.org/namespaces/inkscape" xmlns:sodipodi="http://sodipodi.sourceforge.net/DTD/sodipodi-0.dtd" xmlns:svg="http://www.w3.org/2000/svg"
	 xmlns="http://www.w3.org/2000/svg" xmlns:xlink="http://www.w3.org/1999/xlink" x="0px" y="0px" viewBox="0 0 252.4 147.1"
	 style="enable-background:new 0 0 252.4 147.1;" xml:space="preserve">
<style type="text/css">
	.st0{fill:#FFFFFF;}
	.st1{fill:#00AF91;}
</style>
<sodipodi:namedview  bordercolor="#eeeeee" borderopacity="1" id="namedview27" inkscape:current-layer="g31" inkscape:cx="11.235955" inkscape:cy="152.30962" inkscape:pagecheckerboard="0" inkscape:pageopacity="0" inkscape:pageshadow="0" inkscape:window-height="719" inkscape:window-maximized="1" inkscape:window-width="1360" inkscape:window-x="0" inkscape:window-y="25" inkscape:zoom="0.80099998" pagecolor="#505050" showgrid="false">
	</sodipodi:namedview>
<g id="g31" transform="matrix(1.3333333,0,0,-1.3333333,-226.88306,285.43559)" inkscape:groupmode="layer" inkscape:label="5306135">
	<g id="g125" transform="translate(113.49281)">
		<g>
			<g id="g127">
				<g id="g133" transform="translate(163.0605,135.7881)">
					<path id="path135" class="st0" d="M16.6,0h-53.1c-3.9,0-7.1,2.9-6.8,6.3l3.6,52.4h59.5l3.6-52.4C23.7,2.9,20.5,0,16.6,0"/>
				</g>
				<g id="g137" transform="translate(109.6377,191.3643)">
					<path id="path139" class="st1" d="M16.6,0l-3.4-49.5c-0.1-0.8,0.3-1.4,0.7-1.8c0.7-0.8,1.8-1.2,3.1-1.2H70
						c1.2,0,2.3,0.4,3.1,1.2c0.3,0.4,0.7,1,0.7,1.8L70.3,0H16.6z M70-58.7H16.9c-2.9,0-5.7,1.2-7.6,3.2c-1.7,1.8-2.5,4.1-2.3,6.4
						l3.6,52.4c0.1,1.6,1.5,2.9,3.1,2.9h59.5c1.6,0,3-1.3,3.1-2.9l3.6-52.4c0.2-2.3-0.7-4.6-2.3-6.4C75.7-57.5,72.9-58.7,70-58.7"/>
				</g>
				<g id="g141" transform="translate(153.3213,197.2637)">
					<path id="path143" class="st1" d="M16.6,0h-6.2c0,5.9-4.8,10.6-10.6,10.6S-10.9,5.9-10.9,0H-17c0,9.3,7.5,16.8,16.8,16.8
						S16.6,9.3,16.6,0"/>
				</g>
				<g id="g145" transform="translate(136.5073,152.1533)">
					<path id="path147" class="st1" d="M16.6,0C10.3,0,4.4,3,1.2,7.8C0.5,8.7,0.8,10,1.7,10.6c0.9,0.6,2.2,0.4,2.9-0.6
						c2.5-3.7,7.1-5.9,12-5.9c5,0,9.6,2.3,12,5.9c0.6,0.9,1.9,1.2,2.9,0.6c0.9-0.6,1.2-1.9,0.6-2.9C28.8,3,22.9,0,16.6,0"/>
				</g>
				<g id="g149" transform="translate(126.4526,180.3643)">
					<path id="path151" class="st1" d="M16.6,0c0-2-1.6-3.7-3.7-3.7c-2,0-3.7,1.6-3.7,3.7c0,2,1.6,3.7,3.7,3.7
						C14.9,3.7,16.6,2,16.6,0"/>
				</g>
				<g id="g153" transform="translate(153.895,180.3643)">
					<path id="path155" class="st1" d="M16.6,0c0-2-1.6-3.7-3.7-3.7S9.3-2,9.3,0c0,2,1.6,3.7,3.7,3.7S16.6,2,16.6,0"/>
				</g>
				<g id="g157" transform="translate(120.897,157.1299)">
					<path id="path159" class="st1" d="M16.6,0c-0.5,0-1.1,0.2-1.5,0.6c-0.8,0.8-0.8,2.1,0,2.9l3.8,3.8c0.8,0.8,2.1,0.8,2.9,0
						c0.8-0.8,0.8-2.1,0-2.9L18,0.6C17.6,0.2,17.1,0,16.6,0"/>
				</g>
				<g id="g161" transform="translate(152.1201,157.1299)">
					<path id="path163" class="st1" d="M16.6,0c-0.5,0-1.1,0.2-1.5,0.6l-3.8,3.8c-0.8,0.8-0.8,2.1,0,2.9c0.8,0.8,2.1,0.8,2.9,0
						L18,3.5c0.8-0.8,0.8-2.1,0-2.9C17.6,0.2,17.1,0,16.6,0"/>
				</g>
			</g>
		</g>
	</g>
</g>
<g>
	<path class="st1" d="M0,136.5c0-6.2,4.8-10.7,11.2-10.7c3.6,0,6.5,1.3,8.5,3.6l-3.1,2.8c-1.4-1.6-3.1-2.4-5.2-2.4
		c-3.9,0-6.6,2.7-6.6,6.6c0,3.9,2.7,6.6,6.6,6.6c2.1,0,3.8-0.8,5.2-2.4l3.1,2.8c-1.9,2.4-4.9,3.7-8.5,3.7C4.8,147.1,0,142.7,0,136.5
		z"/>
	<path class="st1" d="M36.6,142.3h-9.6l-1.8,4.4h-4.9l9.2-20.6h4.7l9.2,20.6h-5L36.6,142.3z M35.1,138.7l-3.3-7.9l-3.3,7.9H35.1z"/>
	<path class="st1" d="M44.6,136.5c0-6.2,4.8-10.7,11.2-10.7c3.6,0,6.5,1.3,8.5,3.6l-3.1,2.8c-1.4-1.6-3.1-2.4-5.2-2.4
		c-3.9,0-6.6,2.7-6.6,6.6c0,3.9,2.7,6.6,6.6,6.6c2.1,0,3.8-0.8,5.2-2.4l3.1,2.8c-1.9,2.4-4.9,3.7-8.5,3.7
		C49.4,147.1,44.6,142.7,44.6,136.5z"/>
	<path class="st1" d="M86.9,126.2v20.6h-4.8v-8.4h-9.4v8.4h-4.8v-20.6h4.8v8.1h9.4v-8.1H86.9z"/>
	<path class="st1" d="M92.2,137.7v-11.5H97v11.4c0,3.9,1.7,5.5,4.6,5.5c2.9,0,4.6-1.6,4.6-5.5v-11.4h4.7v11.5c0,6.1-3.5,9.4-9.3,9.4
		S92.2,143.8,92.2,137.7z"/>
	<path class="st1" d="M129.3,146.8l-4-5.7h-0.2H121v5.7h-4.8v-20.6h8.9c5.5,0,8.9,2.9,8.9,7.5c0,3.1-1.6,5.4-4.2,6.5l4.6,6.6H129.3z
		 M124.9,130H121v7.2h3.9c2.9,0,4.4-1.4,4.4-3.6C129.2,131.4,127.8,130,124.9,130z"/>
	<path class="st1" d="M154.4,142.9v3.8h-16v-20.6H154v3.8h-10.8v4.5h9.6v3.7h-9.6v4.8H154.4z"/>
	<path class="st1" d="M172.3,142.3h-9.6l-1.8,4.4h-4.9l9.2-20.6h4.7l9.2,20.6h-5L172.3,142.3z M170.8,138.7l-3.3-7.9l-3.3,7.9H170.8
		z"/>
	<path class="st1" d="M200.8,126.2v20.6h-3.9l-10.3-12.5v12.5h-4.7v-20.6h3.9l10.2,12.5v-12.5H200.8z"/>
	<path class="st1" d="M206.3,126.2h9.4c6.7,0,11.4,4.1,11.4,10.3s-4.6,10.3-11.4,10.3h-9.4V126.2z M215.4,142.8
		c4.1,0,6.8-2.4,6.8-6.4s-2.7-6.4-6.8-6.4H211v12.8H215.4z"/>
	<path class="st1" d="M229.9,136.5c0-6.1,4.8-10.7,11.3-10.7c6.5,0,11.3,4.5,11.3,10.7c0,6.2-4.8,10.7-11.3,10.7
		C234.6,147.1,229.9,142.6,229.9,136.5z M247.6,136.5c0-3.9-2.8-6.6-6.4-6.6c-3.7,0-6.4,2.7-6.4,6.6c0,3.9,2.8,6.6,6.4,6.6
		C244.8,143,247.6,140.4,247.6,136.5z"/>
</g>
</svg>
