<?xml version="1.0" encoding="utf-8"?>
<!-- Generator: Adobe Illustrator 25.2.3, SVG Export Plug-In . SVG Version: 6.00 Build 0)  -->
<svg version="1.1"
	 id="svg25" inkscape:version="1.1.2 (0a00cf5339, 2022-02-04)" sodipodi:docname="logo.svg" xmlns:inkscape="http://www.inkscape.org/namespaces/inkscape" xmlns:sodipodi="http://sodipodi.sourceforge.net/DTD/sodipodi-0.dtd" xmlns:svg="http://www.w3.org/2000/svg"
	 xmlns="http://www.w3.org/2000/svg" xmlns:xlink="http://www.w3.org/1999/xlink" x="0px" y="0px" viewBox="0 0 97.3 108.5"
	 style="enable-background:new 0 0 97.3 108.5;" xml:space="preserve">
<style type="text/css">
	.st0{fill:#FFFFFF;}
	.st1{fill:#00AF91;}
</style>
<sodipodi:namedview  bordercolor="#eeeeee" borderopacity="1" id="namedview27" inkscape:current-layer="g31" inkscape:cx="11.235955" inkscape:cy="152.30962" inkscape:pagecheckerboard="0" inkscape:pageopacity="0" inkscape:pageshadow="0" inkscape:window-height="719" inkscape:window-maximized="1" inkscape:window-width="1360" inkscape:window-x="0" inkscape:window-y="25" inkscape:zoom="0.80099998" pagecolor="#505050" showgrid="false">
	</sodipodi:namedview>
<g id="g31" transform="matrix(1.3333333,0,0,-1.3333333,-226.88306,285.43559)" inkscape:groupmode="layer" inkscape:label="5306135">
	<g id="g125" transform="translate(113.49281)">
		<g>
			<g id="g127">
				<g id="g133" transform="translate(163.0605,135.7881)">
					<path id="path135" class="st0" d="M-43.3,0h-53.1c-3.9,0-7.1,2.9-6.8,6.3l3.6,52.4h59.5l3.6-52.4C-36.3,2.9-39.4,0-43.3,0"/>
				</g>
				<g id="g137" transform="translate(109.6377,191.3643)">
					<path id="path139" class="st1" d="M-43.3,0l-3.4-49.5c-0.1-0.8,0.3-1.4,0.7-1.8c0.7-0.8,1.8-1.2,3.1-1.2h53.1
						c1.2,0,2.3,0.4,3.1,1.2c0.3,0.4,0.7,1,0.7,1.8L10.4,0H-43.3z M10.1-58.7H-43c-2.9,0-5.7,1.2-7.6,3.2c-1.7,1.8-2.5,4.1-2.3,6.4
						l3.6,52.4c0.1,1.6,1.5,2.9,3.1,2.9h59.5c1.6,0,3-1.3,3.1-2.9L20-49.1c0.2-2.3-0.7-4.6-2.3-6.4C15.8-57.5,13-58.7,10.1-58.7"/>
				</g>
				<g id="g141" transform="translate(153.3213,197.2637)">
					<path id="path143" class="st1" d="M-43.3,0h-6.2c0,5.9-4.8,10.6-10.6,10.6S-70.8,5.9-70.8,0H-77c0,9.3,7.5,16.8,16.8,16.8
						S-43.3,9.3-43.3,0"/>
				</g>
				<g id="g145" transform="translate(136.5073,152.1533)">
					<path id="path147" class="st1" d="M-43.3,0c-6.3,0-12.2,3-15.4,7.8c-0.6,0.9-0.4,2.2,0.6,2.9c0.9,0.6,2.2,0.4,2.9-0.6
						c2.5-3.7,7.1-5.9,12-5.9c5,0,9.6,2.3,12,5.9c0.6,0.9,1.9,1.2,2.9,0.6c0.9-0.6,1.2-1.9,0.6-2.9C-31.1,3-37,0-43.3,0"/>
				</g>
				<g id="g149" transform="translate(126.4526,180.3643)">
					<path id="path151" class="st1" d="M-43.3,0c0-2-1.6-3.7-3.7-3.7c-2,0-3.7,1.6-3.7,3.7c0,2,1.6,3.7,3.7,3.7
						C-45,3.7-43.3,2-43.3,0"/>
				</g>
				<g id="g153" transform="translate(153.895,180.3643)">
					<path id="path155" class="st1" d="M-43.3,0c0-2-1.6-3.7-3.7-3.7S-50.7-2-50.7,0c0,2,1.6,3.7,3.7,3.7S-43.3,2-43.3,0"/>
				</g>
				<g id="g157" transform="translate(120.897,157.1299)">
					<path id="path159" class="st1" d="M-43.3,0c-0.5,0-1.1,0.2-1.5,0.6c-0.8,0.8-0.8,2.1,0,2.9l3.8,3.8c0.8,0.8,2.1,0.8,2.9,0
						s0.8-2.1,0-2.9l-3.8-3.8C-42.3,0.2-42.8,0-43.3,0"/>
				</g>
				<g id="g161" transform="translate(152.1201,157.1299)">
					<path id="path163" class="st1" d="M-43.3,0c-0.5,0-1.1,0.2-1.5,0.6l-3.8,3.8c-0.8,0.8-0.8,2.1,0,2.9s2.1,0.8,2.9,0l3.8-3.8
						c0.8-0.8,0.8-2.1,0-2.9C-42.3,0.2-42.8,0-43.3,0"/>
				</g>
			</g>
		</g>
	</g>
</g>
</svg>
