<?xml version="1.0" encoding="utf-8"?>
<!-- Generator: Adobe Illustrator 25.2.3, SVG Export Plug-In . SVG Version: 6.00 Build 0)  -->
<svg version="1.1" id="Layer_1" xmlns="http://www.w3.org/2000/svg" xmlns:xlink="http://www.w3.org/1999/xlink" x="0px" y="0px"
	 viewBox="0 0 2975.2 1540.4" style="enable-background:new 0 0 2975.2 1540.4;" xml:space="preserve">
<style type="text/css">
	.st0{fill:#3F9896;}
	.st1{fill:#7FC6A6;}
	.st2{opacity:0.2;}
	.st3{fill:#00AF91;}
	.st4{fill:#F9E4A5;}
	.st5{fill:#FE9F73;}
	.st6{fill:#F07162;}
	.st7{fill:#FBFDFC;}
	.st8{fill:#49263E;}
	.st9{fill:#33182C;}
	.st10{fill:#21111D;}
	.st11{fill:#DCD3FC;}
	.st12{fill:#9886F2;}
	.st13{fill:#4C222E;}
	.st14{fill:#EA6D47;}
	.st15{fill:#33192C;}
	.st16{fill:#F9B498;}
	.st17{fill:#1D1D1B;}
	.st18{fill:#EA5942;}
	.st19{fill:#F1EEEC;}
	.st20{fill:#593750;}
	.st21{fill:#FFFFFF;}
	.st22{fill:#75486B;}
	.st23{fill:#9BC1F9;}
	.st24{fill:#FEC786;}
	.st25{fill:#1971BA;}
	.st26{fill:#374169;}
	.st27{fill:#4CB7D8;}
	.st28{fill:#61A3C5;}
	.st29{fill:#FC4963;}
	.st30{fill:#FEBAC7;}
	.st31{fill:#F7AB48;}
	.st32{fill:#B9EDD6;}
	.st33{fill:#44243D;}
	.st34{fill:#5AA382;}
	.st35{fill:#258D8C;}
	.st36{fill:#F57583;}
</style>
<g>
	<g>
		<g>
			<g>
				<g>
					<g>
						<g>
							<g>
								<g>
									<g>
										<path class="st0" d="M1050.4,356.3c0,0-13.1-141.8-185.6-189.9C864.8,166.3,894.7,377.1,1050.4,356.3z"/>
									</g>
								</g>
							</g>
						</g>
					</g>
				</g>
			</g>
		</g>
		<g>
			<g>
				<g>
					<g>
						<g>
							<g>
								<g>
									<g>
										<path class="st1" d="M1139.7,435.1c0,0,86.8-229.8-143.4-435.1C996.3,0,883.6,349.5,1139.7,435.1z"/>
									</g>
								</g>
							</g>
						</g>
					</g>
				</g>
			</g>
		</g>
	</g>
	<g class="st2">
		<g>
			<path class="st3" d="M2872.4,1540.4H24.1c-1-2.3-2.1-4.7-3.2-7.4c-17.7-42.7-39.6-130.1,6.7-244.9
				c54.1-133.8,123.9-129.8,134.3-366.6c1.6-440.6,284-657.7,561.4-655c126.4-9.3,226.4,86.6,390.7,45
				c160.8-51.2,333.8-138.2,572.2-181.3c52.6-9.5,83.3-13.6,108.8-16.3c179-19.2,432.3-4.1,567.9,185.7
				c34.2,50.8,49.7,101.1,70.4,147.9c44.3,107.8,97.3,99,188.5,175.4C2838,803.8,2966.1,1162.5,2872.4,1540.4z"/>
		</g>
	</g>
	<g>
		<g>
			<g>
				<g>
					<g>
						<g>
							<path class="st4" d="M2578.6,957.8c22.7,33.4,17.9,157.2,17.9,157.2l-12.1-0.1c-0.6-4.1-3.3-15.7-3.3-15.7l-3.7,15.7
								l-46.9-0.2l-25.2-188C2505.4,926.7,2555.9,924.5,2578.6,957.8z"/>
						</g>
					</g>
				</g>
			</g>
			<g>
				<g>
					<g>
						<g>
							<g>
								<path class="st5" d="M2456.1,934.3l8.3,79.2l1.5,14.1l0.4,4.1l0.2,1.5l2,19.3l2.8,26.6l0.4,3.6l3.8,36.7l5.4,1.6l0.1,0.6
									c0,0-2,0.1-5.3,0.1l2.5,24l52.7,6.3l0.4,0.1l17.7,2.1l0.8,0.1l-0.1-0.8l-3.1-31.1l-0.8-7.6l-0.6-6.1l-2-20
									c49-18.9,12.6-109.5,12.6-109.5s-13.1-6.8-28.6-15l0,0c-0.9-0.4-1.7-0.9-2.6-1.3c-3.2-1.7-6.5-3.4-9.7-5.2
									c-2-1.1-4.1-2.2-6.1-3.2c-16.8-9-31.6-17.1-31.7-17.9c-0.1-0.8-4.7-1.3-9.6-1.6C2462.1,934.4,2456.1,934.3,2456.1,934.3z"/>
							</g>
						</g>
					</g>
				</g>
			</g>
			<g>
				<g>
					<g>
						<g>
							<g>
								<path class="st6" d="M2539.5,1044c-0.3,0-0.6-0.1-0.7-0.4c-0.1-0.3,0.1-0.7,0.4-0.8c4-1.3,6.1-6.7,6.7-8.4
									c-6.2-2.5-10.2-6.2-11.9-11c-2.8-7.8,1.5-15.6,1.7-15.9c0.2-0.3,0.6-0.4,0.9-0.2c0.3,0.2,0.4,0.6,0.2,0.9
									c0,0.1-4.2,7.6-1.6,14.8c1.6,4.6,5.6,8.1,11.7,10.4l0.5,0.2l-0.2,0.6c-0.1,0.3-2.2,8.1-7.7,9.8
									C2539.6,1044,2539.6,1044,2539.5,1044z"/>
							</g>
						</g>
					</g>
				</g>
			</g>
			<g>
				<g>
					<g>
						<g>
							<g>
								<path class="st6" d="M2545.5,1108.6l-2.1-20.1c0,0-34.1,1.5-56.3-9.4C2487.1,1079.2,2518.2,1103.4,2545.5,1108.6z"/>
							</g>
						</g>
					</g>
				</g>
			</g>
			<g>
				<g>
					<g>
						<g>
							<g>
								<path d="M2520.4,1017.9c0.2,2-1.2,3.7-3.2,3.9c-2,0.2-3.7-1.2-3.9-3.2c-0.2-2,1.2-3.7,3.2-3.9
									C2518.5,1014.5,2520.2,1015.9,2520.4,1017.9z"/>
							</g>
						</g>
					</g>
				</g>
			</g>
			<g>
				<g>
					<g>
						<g>
							<g>
								<path d="M2556.7,1015.3c0.2,2-1.2,3.7-3.2,3.9c-2,0.2-3.7-1.2-3.9-3.2c-0.2-2,1.2-3.7,3.2-3.9
									C2554.7,1011.9,2556.5,1013.3,2556.7,1015.3z"/>
							</g>
						</g>
					</g>
				</g>
			</g>
			<g>
				<g>
					<g>
						<g>
							<g>
								<path class="st7" d="M2511.5,1045.2c0.4,0.1,24.4,7.6,24.4,7.6s-6.3,8.8-15.3,6C2511.7,1056.1,2511.5,1045.2,2511.5,1045.2z
									"/>
							</g>
						</g>
					</g>
				</g>
			</g>
			<g>
				<g>
					<g>
						<g>
							<path class="st4" d="M2429.5,1032.2l42.1,50.6l3.1,3.7c-0.2-0.4-1.7-3.1-3.5-7.3c-2.6-6.2-5.9-15.6-6.8-25.7
								c-0.6-6.7-0.2-13.7,2-20.2c0.1-0.4,0.3-0.7,0.4-1.1c0.2-0.6,0.4-1.1,0.7-1.7c1.5-3.3,3.5-6.5,6.2-9.4
								c0.7-0.8,1.4-1.5,2.2-2.2c2.4-2.2,5.3-4.3,8.6-6.1c13.1-7.1,22.3-16.8,28.8-26.5c4.4-6.6,7.6-13.2,9.9-19.1
								c0.6-1.5,1.1-3,1.6-4.5c0.1-0.2,0.1-0.3,0.2-0.5c2.9-9,3.6-15.3,3.6-15.3c0.7-11.3-8.8-17.7-21.8-20.2
								c-12.1-2.3-27.1-1.2-39.5,2.8c0,0-0.1,0-0.3,0.1c-4,1.3-7.6,2.9-10.9,4.7C2422.6,953.4,2429.5,1032.2,2429.5,1032.2z"/>
						</g>
					</g>
				</g>
			</g>
			<g>
				<g>
					<g>
						<g>
							<g>
								<g>
									<path class="st8" d="M2504.4,1006.6c0.4,0.1,0.8,0.1,1.2-0.2c0.1-0.1,8.7-6.4,18.2-4.2c0.7,0.2,1.4-0.3,1.5-1
										c0.2-0.7-0.3-1.4-1-1.5c-10.6-2.5-19.9,4.3-20.3,4.6c-0.6,0.4-0.7,1.2-0.3,1.8C2504,1006.3,2504.2,1006.5,2504.4,1006.6z"
										/>
								</g>
							</g>
						</g>
					</g>
				</g>
			</g>
			<g>
				<g>
					<g>
						<g>
							<g>
								<g>
									<path class="st8" d="M2559.7,1005.8c0.4,0,0.8-0.2,1.1-0.5c0.4-0.6,0.3-1.4-0.3-1.8c-0.4-0.3-9.8-7-20.4-4.3
										c-0.7,0.2-1.1,0.9-0.9,1.6c0.2,0.7,0.9,1.1,1.6,0.9c9.5-2.4,18.2,3.9,18.2,3.9C2559.2,1005.7,2559.4,1005.8,2559.7,1005.8z
										"/>
								</g>
							</g>
						</g>
					</g>
				</g>
			</g>
			<g>
				<g>
					<g>
						<g>
							<polygon class="st5" points="2527.4,964 2508.4,949.5 2523.2,967.1 							"/>
						</g>
					</g>
				</g>
			</g>
			<g>
				<g>
					<g>
						<g>
							<path class="st4" d="M2429.5,1032.2l42.1,50.6l3.8,36.7l5.4,1.6l-2.1-9.9c-4.3-23.9-5.7-44.7-6-60.7
								c-0.2-13.9,0.4-24.1,0.9-29.5c0.2-1.7,0.3-3,0.4-3.7c0.1-0.5,0.1-0.8,0.1-0.8l-6.5-81.8l-0.4-5.3c0,0-0.1,0-0.3,0.1
								c-4,1.3-7.6,2.9-10.9,4.7C2422.6,953.4,2429.5,1032.2,2429.5,1032.2z"/>
						</g>
					</g>
				</g>
			</g>
			<g>
				<g>
					<g>
						<g>
							<g>
								<g>
									<path class="st5" d="M2482.1,1031.4c1.2,11.1-6.9,21-17.9,22.1c-11.1,1.2-21-6.9-22.1-17.9c-1.2-11.1,6.9-21,17.9-22.1
										C2471.1,1012.3,2481,1020.3,2482.1,1031.4z"/>
								</g>
							</g>
						</g>
					</g>
				</g>
				<g>
					<g>
						<g>
							<g>
								<g>
									<path class="st6" d="M2461.9,1046c-4.2,0.4-7.3-2.4-8.6-5.5c-1.5-3.6-0.6-7.4,2.2-9.6c4-3.1,8.1-2,10.4-0.9
										c-1.1-2-2.6-3.5-4.4-4.2c-4.1-1.7-8.8,0.3-8.9,0.4c-0.3,0.1-0.7,0-0.9-0.3c-0.1-0.3,0-0.7,0.3-0.9c0.2-0.1,5.2-2.3,9.9-0.4
										c2.7,1.1,4.7,3.4,5.9,6.8l0.8,2.2l-1.8-1.5c-0.2-0.2-5.4-4.3-10.6-0.2c-2.9,2.2-2.8,5.7-1.8,8.1c1,2.4,3.5,5.1,7.4,4.7
										c0.3,0,0.7,0.2,0.7,0.6c0,0.4-0.2,0.7-0.6,0.7C2462,1046,2461.9,1046,2461.9,1046z"/>
								</g>
							</g>
						</g>
					</g>
				</g>
			</g>
		</g>
		<g>
			<polygon class="st5" points="2869.5,810.8 2789,995.8 2684.7,1105 2744.4,1215.8 2872.3,1044.5 2942.4,837.7 			"/>
		</g>
		<g>
			<g>
				<g>
					<g>
						<g>
							<path class="st5" d="M2872.2,816.9c-4.7-1.8-1.8,6.8-2.4,3.8l-2-82.7c-0.9-4.6,2.1-9.1,6.7-10s9.1,2.1,10,6.7l9.1,22.8
								c5.9-8.7,39.1-67,39.1-67c2.2-4.4,7.6-6,11.9-3.5c3.9,2.3,5.2,7.3,3.2,11.4l-19.6,39.3c-0.3,0.6-0.3,1.2,0,1.8l0,0l0,0
								c0.2,0.3,0.4,0.6,0.7,0.8l1.8,1.2c0.5,0.3,1,0.4,1.5,0.3c8.5,5.6,19.2,13.1,28.6,18.7c6.6,4,13.6,5.2,14.2,12.7
								c0.3,4.3-8.6,21.2-12.2,27l-23.4,43.4C2927.8,836.3,2911.4,848,2872.2,816.9z"/>
						</g>
					</g>
				</g>
			</g>
			<g>
				<g>
					<g>
						<g>
							<path class="st5" d="M2943.5,735.8c4.4,3.7,5.2,9.5,4.4,10.5l-28.1,33.3c-3.2,3.7-8.7,4.6-12.7,1.7c-4.3-3.2-5-9.3-1.6-13.3
								l28.9-34.2C2934.4,733.9,2939.1,732.1,2943.5,735.8z"/>
						</g>
					</g>
				</g>
			</g>
			<g>
				<g>
					<g>
						<g>
							<path class="st5" d="M2957.3,747.6c4.4,3.6,5.4,9.4,4.6,10.4l-27.5,33.9c-3.1,3.8-8.7,4.8-12.7,2c-4.4-3.1-5.2-9.2-1.8-13.3
								l28.2-34.7C2948.1,745.9,2952.9,744,2957.3,747.6z"/>
						</g>
					</g>
				</g>
			</g>
			<g>
				<g>
					<g>
						<g>
							<path class="st5" d="M2969.1,759.8c4.2,3.3,5.2,8.7,4.4,9.7l-25.2,31.8c-2.8,3.6-8,4.6-11.8,2c-4.1-2.8-4.9-8.5-1.8-12.4
								l25.9-32.6C2960.5,758.3,2964.9,756.5,2969.1,759.8z"/>
						</g>
					</g>
				</g>
			</g>
			<g>
				<g>
					<g>
						<g>
							<g>
								<path class="st6" d="M2949.3,747.1c0.4-0.7,0.2-1.6-0.4-2.1c-0.7-0.6-1.8-0.5-2.4,0.2l-28,33.4c-2.6,3.1-7.2,3.8-10.3,1.4
									c-1.7-1.2-2.8-3.1-3-5.1c-0.2-2.1,0.4-4.1,1.7-5.7l25.7-30.5c0.6-0.7,0.5-1.8-0.2-2.4c-0.7-0.6-1.8-0.5-2.4,0.2l-25.7,30.5
									c-1.9,2.3-2.9,5.3-2.5,8.3c0.4,3,1.9,5.7,4.4,7.5c4.6,3.4,11.2,2.5,15-2l28-33.4C2949.2,747.3,2949.3,747.2,2949.3,747.1z"
									/>
							</g>
						</g>
					</g>
				</g>
			</g>
			<g>
				<g>
					<g>
						<g>
							<g>
								<path class="st6" d="M2961.8,759.4c0.4-0.7,0.2-1.6-0.5-2.2c-0.8-0.6-1.8-0.5-2.4,0.3l-26.3,33.4c-2.6,3.2-6.6,3.9-9.8,1.6
									c-1.7-1.2-2.8-3-3.1-5.1c-0.3-2.1,0.3-4.1,1.6-5.7l28.2-34.7c0.6-0.7,0.5-1.8-0.3-2.4c-0.7-0.6-1.8-0.5-2.4,0.3l-28.2,34.7
									c-1.9,2.3-2.8,5.4-2.3,8.4c0.4,3,2,5.7,4.5,7.4c4.7,3.3,10.8,2.3,14.5-2.3l26.4-33.4
									C2961.7,759.6,2961.8,759.5,2961.8,759.4z"/>
							</g>
						</g>
					</g>
				</g>
			</g>
			<g>
				<g>
					<g>
						<g>
							<g>
								<path class="st6" d="M2975,770.3c0.4-0.7,0.2-1.6-0.5-2.2c-0.7-0.6-1.8-0.5-2.4,0.3l-25.2,31.8c-2.3,2.9-6.5,3.7-9.4,1.6
									c-1.6-1.1-2.6-2.7-2.9-4.6c-0.3-1.9,0.2-3.8,1.4-5.3l25.9-32.6c0.6-0.7,0.5-1.8-0.3-2.4c-0.7-0.6-1.8-0.5-2.4,0.3
									l-25.9,32.6c-1.8,2.2-2.5,5.1-2.1,7.9c0.4,2.8,2,5.3,4.3,7c4.4,3.1,10.6,2.1,14.1-2.3l25.2-31.8
									C2974.9,770.5,2975,770.4,2975,770.3z"/>
							</g>
						</g>
					</g>
				</g>
			</g>
		</g>
		<g>
			<path class="st9" d="M2785.7,995.9c-36.4,27.2-184.5,168.5-197.5,173.2c-1.1,0.4-2.8,0.7-5.2,1l82.4,168.6
				c4.4,0,77.5-98.3,206.9-283.3C2840,1003.4,2820.9,991.7,2785.7,995.9z"/>
		</g>
		<g>
			<path class="st9" d="M2785.7,995.9l77-181.4c0,0,47.7,4,79.7,36.7c0,0-53.2,180-70.2,204.2c-16.9,24.2-77,4-77,4L2785.7,995.9z"
				/>
		</g>
		<g>
			<path class="st8" d="M2675.3,1481.4c9,16.7,17.3,33.9,25.1,51.6h-341.9c10.6-19.8,19.2-34.4,20.7-37.9c2.6-6,8.7-11.1,9.6-15.7
				c0.2-1,0.1-1.8-0.1-2.7c-2.4-9.3-29.4-74.7-44.2-117.4c-13.1,22.4-70,119.1-83.1,141.4l-22.2,32.4h-137.9
				c31.3-55.6,30.1-53.5,49.6-88.1c22.5-40.5,48.1-82.8,50.1-85.8c28-46.1,75.3-118.7,107.3-157.4c11.3-14.1,18.8-22.1,26-29.2
				c36.8-25.3,113.8-34.3,157.3-30.2c43-0.8,88.3-2.6,130,5.1l0,0c8.1,9.7,65.6,98.6,73.4,116.2c11.5,25,7.7,58.7-6.7,82.7
				C2678.2,1352.4,2677.2,1472.4,2675.3,1481.4z"/>
		</g>
		<g>
			<g>
				<g>
					<g>
						<g>
							<g>
								<g>
									<g>
										<path class="st10" d="M2358.9,1192.6c0.4,0,0.8-0.2,1-0.5c12-16,31.7-22.6,31.9-22.6c0.7-0.2,1-0.9,0.8-1.6
											c-0.2-0.7-0.9-1-1.6-0.8c-0.8,0.3-20.6,6.8-33.1,23.5c-0.4,0.6-0.3,1.3,0.2,1.7
											C2358.4,1192.5,2358.6,1192.6,2358.9,1192.6z"/>
									</g>
								</g>
							</g>
						</g>
					</g>
				</g>
			</g>
			<g>
				<g>
					<g>
						<g>
							<g>
								<g>
									<g>
										<path class="st10" d="M2361.2,1204.1c0.4,0,0.8-0.2,1-0.5c12-16,31.7-22.6,31.9-22.6c0.7-0.2,1-0.9,0.8-1.6
											s-0.9-1-1.6-0.8c-0.8,0.3-20.6,6.8-33.1,23.5c-0.4,0.6-0.3,1.3,0.2,1.7C2360.7,1204.1,2361,1204.1,2361.2,1204.1z"/>
									</g>
								</g>
							</g>
						</g>
					</g>
				</g>
			</g>
		</g>
		<g>
			<g>
				<g>
					<g>
						<path d="M2421.5,1482.9c-0.1,0-0.1,0-0.2,0l-32.2-3.4c-0.8-0.1-1.4-0.8-1.3-1.6c0.1-0.8,0.8-1.4,1.6-1.3l32.2,3.4
							c0.8,0.1,1.4,0.8,1.3,1.6C2422.9,1482.3,2422.2,1482.9,2421.5,1482.9z"/>
					</g>
				</g>
			</g>
		</g>
		<g>
			<g>
				<g>
					<g>
						<path d="M2676.8,1481c1.8,2.9,12.3,20.4,26.2,52h-3.2c-14.7-33.3-25.5-50.5-25.7-50.8l-0.3-0.4l0-0.5l4.4-59.3l0-0.1l3.8-51.5
							l0.3-4.7l0-0.1l1.1-14.6l0.2-0.3c13.1-19.9,17.2-38.6,16.6-54.9c-1.2-35.9-24.9-60.4-25.3-60.7c-0.6-0.6-0.6-1.5,0-2.1
							c0.6-0.6,1.5-0.6,2.1,0c0,0,0.1,0.1,0.2,0.2c2.1,2.3,23.2,25.4,25.8,58.9c1.4,17.6-2.4,38.1-16.7,60L2676.8,1481z"/>
					</g>
				</g>
			</g>
		</g>
		<g>
			<path d="M2390.9,1478.2l-0.4,0.6c0,0.1-0.2,0.3-0.5,0.8c-2.4,3.9-13.6,22.1-29.7,53.5h-3.3c16.8-32.7,28.4-51.6,30.7-55.2
				l-31.1-83.2l0.6-0.6l1.7-1.8l31.6,84.4L2390.9,1478.2z"/>
		</g>
		<g>
			<path class="st11" d="M2442.1,1142.5c0,0,136.8,159.3,146.1,178.9c0,0,8.5-136.2,8.1-177.6
				C2596.3,1143.9,2535.4,1132.3,2442.1,1142.5z"/>
		</g>
		<g>
			<g>
				<g>
					<path class="st4" d="M2419.4,1116.9c4.5,1,9.1,1.8,13.7,2.4l3.4-20.3c0,0,3.8,13.2,6.1,21.4c12.5,1.2,24,1.4,31.1,1.4
						c0.7,0,1.4,0,2,0c3.4,0,5.3-0.1,5.3-0.1l-0.1-0.6l-5.4-1.6l-3.8-36.7l-42.1-50.6c0,0-6.9-78.7,26.6-97.8
						c3.2-1.8,6.9-3.4,10.9-4.7c-4.2,1.2-48.2,15.2-53.2,58.4C2409.6,1024.9,2419.4,1116.9,2419.4,1116.9z"/>
				</g>
				<g>
					<path class="st12" d="M2461,1145.7l63.4,21.8l6.5-15.4l0.1-0.3l0.3,0.3l9.3,10.3l8.4-8.2l0.7-0.7l12.6-12.2l-14-20.3l-1.7,1.4
						l-16.5,13.6l-49.4-14.9l0.1,0.6c0,0-2,0.1-5.3,0.1c-0.6,0-1.3,0-2,0L2461,1145.7z"/>
				</g>
			</g>
		</g>
		<g>
			<path class="st9" d="M2442.1,1142.5c0,0,16.4,59.6,27,78.7l38.7,19.1l-0.7,30.2l81.1,50.8
				C2588.1,1321.5,2490.1,1186.1,2442.1,1142.5z"/>
		</g>
		<g>
			<path class="st9" d="M2596.3,1143.9c0,0,22.5,52.7,23.5,60.3l-13.1,27.9l10.4,16.5l-28.9,73
				C2588.1,1321.5,2589.6,1184.8,2596.3,1143.9z"/>
		</g>
		<g>
			<path d="M2589.3,1321.5c0-1.2,1.1-116.2,8.1-177.4l-2.4-0.3c-7.1,61.4-8.1,176.5-8.1,177.7L2589.3,1321.5z"/>
		</g>
		<g>
			<polygon class="st9" points="2683.7,1350.6 2487.7,1363.2 2682.4,1365.7 			"/>
		</g>
		<g>
			<path d="M2611.7,1533h-2.4l-17.8-168.5l-0.8-7.9l-3.7-34.7c-0.3-0.4-0.8-1.1-1.6-2.1c-5.5-7.6-23.3-32.1-45.5-61
				c-29.1-38-65.6-83.6-91.1-108.4c-2.1-2.1-4.2-4-6.1-5.7c-0.5-0.4-0.9-0.8-1.4-1.2l0.8-0.9h0v0l0.8-0.9c0.3,0.2,0.6,0.5,0.8,0.7
				c0,0,0,0,0,0c43.1,38.2,128.6,155.3,143.2,175.4c0.5,0.7,0.9,1.2,1.2,1.6c0,0,0.1,0.1,0.1,0.1c0.2,0.2,0.3,0.4,0.4,0.6
				c0.3,0.4,0.4,0.6,0.4,0.6l0.2,0.3l0,0.4l3.7,35l0.9,8.1L2611.7,1533z"/>
		</g>
	</g>
	<g>
		<g>
			<g>
				<g>
					<g>
						<g>
							<path class="st5" d="M133.9,775.7c4-2,2.2,5.8,2.5,3.1l-6-73.5c0.4-4.2-2.7-7.8-6.9-8.2c-4.2-0.4-7.8,2.7-8.2,6.9l-5.9,21.1
								c-6.1-7.1-40.9-55.7-40.9-55.7c-2.3-3.7-7.3-4.6-10.9-2c-3.2,2.4-3.9,7-1.7,10.4l21.1,33c0.3,0.5,0.3,1.1,0.2,1.6l0,0l0,0
								c-0.1,0.3-0.3,0.6-0.5,0.8l-1.5,1.3c-0.4,0.3-0.9,0.5-1.3,0.4c-7,5.8-15.8,13.4-23.5,19.3c-5.5,4.2-11.5,5.9-11.4,12.6
								c0.1,3.8,9.6,18,13.4,22.8L77,805.7C86.4,798,102,806.9,133.9,775.7z"/>
						</g>
					</g>
				</g>
			</g>
			<g>
				<g>
					<g>
						<g>
							<path class="st5" d="M63,710.5c-3.5,3.7-3.7,8.9-2.9,9.7l28.1,26.9c3.2,3,8.2,3.3,11.4,0.3c3.5-3.2,3.5-8.7,0.1-12
								l-28.8-27.6C70.9,707.9,66.5,706.8,63,710.5z"/>
						</g>
					</g>
				</g>
			</g>
			<g>
				<g>
					<g>
						<g>
							<path class="st5" d="M51.9,722.3c-3.6,3.6-3.9,8.9-3.1,9.7l27.6,27.4c3.1,3.1,8.1,3.4,11.4,0.5c3.6-3.2,3.7-8.7,0.4-12
								l-28.3-28.1C59.8,719.8,55.5,718.6,51.9,722.3z"/>
						</g>
					</g>
				</g>
			</g>
			<g>
				<g>
					<g>
						<g>
							<path class="st5" d="M42.6,734.2c-3.4,3.3-3.7,8.2-3,9L65,769c2.9,2.9,7.5,3.3,10.6,0.6c3.4-2.9,3.5-8,0.5-11.1L50,732
								C50,732,46,730.8,42.6,734.2z"/>
						</g>
					</g>
				</g>
			</g>
			<g>
				<g>
					<g>
						<g>
							<g>
								<path class="st6" d="M58.9,721c-0.4-0.6-0.3-1.4,0.2-1.9c0.6-0.6,1.6-0.6,2.2,0l28,26.9c2.6,2.5,6.7,2.7,9.3,0.3
									c1.4-1.3,2.1-3,2.2-4.8c0-1.9-0.7-3.6-2.1-4.9L72.9,712c-0.6-0.6-0.6-1.6,0-2.2c0.6-0.6,1.6-0.6,2.2,0l25.7,24.6
									c1.9,1.9,3,4.5,3,7.1c0,2.7-1.2,5.2-3.2,7.1c-3.8,3.5-9.7,3.3-13.5-0.3l-28-27C59,721.2,59,721.1,58.9,721z"/>
							</g>
						</g>
					</g>
				</g>
			</g>
			<g>
				<g>
					<g>
						<g>
							<g>
								<path class="st6" d="M49,733.1c-0.4-0.6-0.3-1.4,0.2-2c0.6-0.6,1.6-0.6,2.2,0l26.5,27.1c2.6,2.6,6.3,2.8,8.9,0.5
									c1.4-1.2,2.2-2.9,2.3-4.8c0.1-1.9-0.6-3.6-2-4.9l-28.3-28.1c-0.6-0.6-0.6-1.6,0-2.2c0.6-0.6,1.6-0.6,2.2,0l28.3,28.1
									c1.9,1.9,2.9,4.5,2.9,7.2c-0.1,2.7-1.3,5.2-3.3,7c-3.8,3.4-9.3,3.1-13.1-0.7l-26.5-27.1C49.1,733.3,49,733.2,49,733.1z"/>
							</g>
						</g>
					</g>
				</g>
			</g>
			<g>
				<g>
					<g>
						<g>
							<g>
								<path class="st6" d="M38.3,744c-0.4-0.6-0.3-1.4,0.2-2c0.6-0.6,1.6-0.6,2.2,0l25.4,25.8c2.3,2.4,6.1,2.6,8.5,0.5
									c1.3-1.1,2-2.7,2.1-4.4c0.1-1.7-0.5-3.3-1.7-4.5l-26-26.5c-0.6-0.6-0.6-1.6,0-2.2c0.6-0.6,1.6-0.6,2.2,0l26,26.5
									c1.8,1.8,2.7,4.3,2.6,6.8c-0.1,2.6-1.2,4.9-3.2,6.6c-3.6,3.1-9.2,2.8-12.7-0.7l-25.4-25.8C38.4,744.2,38.4,744.1,38.3,744z"
									/>
							</g>
						</g>
					</g>
				</g>
			</g>
		</g>
		<g>
			<path class="st11" d="M141.7,764.9L232,908c34.8,20.7,179.6,137.9,181.8,137.9l-52.1,167.6c-3.9,0.4-80.3-75.8-212.5-227.5
				c-17.3-19.8-81.9-176.7-81.9-176.7C92.6,777.3,141.7,764.9,141.7,764.9z"/>
		</g>
		<g>
			<path class="st5" d="M544.9,909.8l-1.6-19.2c-1.7-19.6-15.5-36.2-34.6-41.1c-33-8.3-67.8,10.1-67.8,10.1s-11.2,20.3-12.3,22.7
				c-1.1,2.4,13.9-6.4,13.9-6.4L544.9,909.8z"/>
		</g>
		<g>
			<g>
				<g>
					<g>
						<path class="st5" d="M550,969.4l-6.9-81L436.8,866l5.1,99l3,25.4c0,0-2.8,52.5,0.5,63.1c3.3,10.6,20.8,31,49.8,28.6
							c9.1-0.8,17-3,23.6-5.7c13.4-5.5,20.8-20,17.9-34.2l-8-38.2C553.6,998.2,550,969.4,550,969.4z"/>
					</g>
				</g>
			</g>
		</g>
		<g>
			<g>
				<g>
					<g>
						<path class="st13" d="M480.5,931.1c0.3-0.1,0.5-0.4,0.6-0.7c0.3-0.8,7.7-20.4,24.4-15.9c0.6,0.2,1.3-0.2,1.5-0.9
							c0.2-0.6-0.2-1.3-0.9-1.5c-18.9-5.1-27.2,17.2-27.3,17.4c-0.2,0.6,0.1,1.3,0.7,1.6C479.9,931.2,480.3,931.2,480.5,931.1z"/>
					</g>
				</g>
			</g>
		</g>
		<g>
			<g>
				<g>
					<g>
						<path class="st13" d="M528.9,910.4c0.3,0.1,0.6,0.1,0.8-0.1c0.1-0.1,12.4-5.8,16.7,0.4c0.4,0.6,1.1,0.7,1.7,0.3
							c0.6-0.4,0.7-1.1,0.3-1.7c-5.4-8-19.1-1.5-19.7-1.3c-0.6,0.3-0.9,1-0.6,1.6C528.3,910.1,528.6,910.3,528.9,910.4z"/>
					</g>
				</g>
			</g>
		</g>
		<g>
			<g>
				<g>
					<g>
						<path d="M501.3,935.3c-0.2-2-1.9-3.5-3.9-3.3c-2,0.2-3.5,1.9-3.3,3.9c0.2,2,1.9,3.5,3.9,3.3
							C500,939.1,501.4,937.3,501.3,935.3z"/>
					</g>
				</g>
			</g>
		</g>
		<g>
			<g>
				<g>
					<g>
						<path d="M539.4,928.5c-0.2-2-1.9-3.5-3.9-3.3c-2,0.2-3.5,1.9-3.3,3.9c0.2,2,1.9,3.5,3.9,3.3
							C538.1,932.2,539.6,930.4,539.4,928.5z"/>
					</g>
				</g>
			</g>
		</g>
		<g>
			<g>
				<g>
					<g>
						<path class="st14" d="M404.5,886.9c-5.5,27.4,8.9,40.5,9.9,48.5c0.9,8,0.1,62.3,37.5,55.1l2.7-89.8l-16.2-34.3l2.3-8
							C440.8,858.4,410,859.5,404.5,886.9z"/>
					</g>
				</g>
			</g>
		</g>
		<g>
			<g>
				<g>
					<g>
						<path class="st5" d="M451.4,960.1c12-1,20.9-11.6,19.9-23.5c-1-12-11.6-20.9-23.5-19.9c-12,1-20.9,11.6-19.9,23.5
							C428.9,952.3,439.4,961.1,451.4,960.1z"/>
					</g>
				</g>
			</g>
		</g>
		<g>
			<g>
				<g>
					<g>
						<path class="st6" d="M443.3,936.6c5.8-4.3,11.4,0.3,11.6,0.5l1.7,1.4l-0.7-2.1c-1.3-3.7-3.3-6.2-6.2-7.4
							c-5-2.2-10.4,0.1-10.6,0.2c-0.3,0.1-0.4,0.5-0.3,0.8c0.1,0.3,0.5,0.5,0.8,0.3c0.1,0,5.2-2.2,9.7-0.2c2.1,0.9,3.7,2.6,4.8,5
							c-2.4-1.3-6.9-2.8-11.4,0.6c-3.1,2.3-4.1,6.3-2.6,10.2c1.3,3.3,4.6,6.4,9.1,6.1c0,0,0.1,0,0.1,0c0.3,0,0.6-0.3,0.5-0.7
							c0-0.3-0.3-0.6-0.7-0.5c0,0-0.1,0-0.1,0c-4.1,0.4-6.8-2.6-7.8-5.3C440.2,942.8,440.1,939,443.3,936.6z"/>
					</g>
				</g>
			</g>
		</g>
		<g>
			<g>
				<g>
					<g>
						<path class="st6" d="M528.6,1004c0,0-38.6,11.2-60.8-19.6c0,0,5.8,48.3,66.7,47.8L528.6,1004z"/>
					</g>
				</g>
			</g>
		</g>
		<g>
			<g>
				<g>
					<g>
						<path class="st6" d="M515.5,958.3c0.1,0.2,0.4,0.4,0.6,0.4c0.1,0,0.1,0,0.2,0l12.7-5.4l-6.4-29.1c-0.1-0.3-0.4-0.5-0.7-0.5
							c-0.3,0.1-0.5,0.4-0.5,0.7l6.2,28.1l-11.7,5C515.5,957.6,515.4,958,515.5,958.3z"/>
					</g>
				</g>
			</g>
		</g>
		<g>
			<g>
				<polygon class="st5" points="445.3,956.1 444.6,997.2 459,997.2 455.5,956.3 				"/>
			</g>
		</g>
		<g>
			<path class="st14" d="M506.8,826.2c-27.1,11.4-78.7,14.6-91.1,41.6c-12.3,27,39,34.1,39,34.1s91.7-13.3,95.6-35.3
				c3.9-22.1-17.9-20.8-17.9-20.8S533.9,814.7,506.8,826.2z"/>
		</g>
		<g>
			<path class="st14" d="M470.7,895.7c10.8-6.8-21.9-10.2-22.8-9.7c-0.9,0.6-18.7,11.6-16.3,11c2.4-0.6,20.8-0.8,20.8-0.8l1.7,19.9
				c0,0,8.7,11.1,7.4,26.1c0,0,5.8,1.6,6.4-3.1C468.5,934.4,459.9,902.6,470.7,895.7z"/>
		</g>
		<g>
			<g>
				<g>
					<g>
						<g>
							<path class="st7" d="M532.2,963.6c0,0-25.5,0.3-25.9,0.4c0,0,3.6,10.4,13.1,10.3C528.8,974.1,532.2,963.6,532.2,963.6z"/>
						</g>
					</g>
				</g>
			</g>
		</g>
		<g>
			<path class="st5" d="M858.7,1533h-91.3l-0.4-1.9l5.6-0.5l85.3-7.2C858.2,1526.7,858.4,1529.9,858.7,1533z"/>
		</g>
		<g>
			<g>
				<g>
					<g>
						<path class="st15" d="M463.7,1533h-141l2.7-19.9c0.2-1.9,0.7-3.8,1.2-5.6l1.2-3.8c6.4-20.8,30.5-30.4,49.4-19.6l41.2,23.3
							l13.2,7.5l5.8,3.3L463.7,1533z"/>
					</g>
				</g>
			</g>
		</g>
		<g>
			<g>
				<g>
					<g>
						<polygon class="st8" points="590.3,1533 423.1,1533 418.4,1507.4 407.4,1448.4 433.7,1460.6 439.5,1463.3 						"/>
					</g>
				</g>
			</g>
		</g>
		<g>
			<path class="st11" d="M876.9,1533H743.3c-3.5-15.7-25.2-113.9-33.9-127.2c-11-16.6-50.7-81.1-56.5-90.7c0,9-0.6,215.6-0.6,217.9
				H312.8c10.4-115.4,25.2-276.1,36.4-391.5c2.3-23.9,3.2-36.1,5.9-49.2c5-24.8,15.6-47.3,40-50.1c9.3-1.1,43.3,12.8,53.8,11.8
				c36.6-3.4,109.9-9,144.3,3.6c25.2,9.2,73.2,56.9,92.2,76c32.2,33,60.5,63.8,92.4,101.8c15.2,18.1,73.4,88.6,78.7,111.8
				C862.2,1372.5,870.9,1464.5,876.9,1533z"/>
		</g>
		<g>
			<path d="M747.1,1533h-4.7c-5.5-22.7-11.4-44.8-16.8-64c0,0,0,0,0,0c-2.9-10.2-5.6-19.6-8-27.8c-5.7-19.4-9.8-32.3-10.4-34.4
				l-52.2-83.3l-2.3-3.7l-2.3-3.6l-36-57.5c-0.7-1.1-0.3-2.5,0.7-3.2c1.1-0.7,2.5-0.3,3.2,0.7l35.7,57l1,1.7l56.2,89.8l0.2,0.5
				c0.1,0.3,3,9.6,7.5,24.6c2.7,9.2,6.1,20.5,9.6,33.3c0,0,0,0,0,0C734.5,1483.7,741.1,1508,747.1,1533z"/>
		</g>
		<g>
			<path d="M652.4,1495.1C652.4,1495.1,652.4,1495.1,652.4,1495.1c-1.3,0-2.3-1-2.3-2.3l0.5-177.7c0-1.3,1-2.3,2.3-2.3c0,0,0,0,0,0
				c1.3,0,2.3,1,2.3,2.3l-0.5,177.7C654.7,1494.1,653.6,1495.1,652.4,1495.1z"/>
		</g>
		<g>
			<path d="M804.1,1271.5c-126-154.2-199.5-205.3-200.3-205.8c-1-0.7-1.3-2.1-0.6-3.2c0.7-1,2.1-1.3,3.2-0.6
				c0.7,0.5,74.7,51.9,201.2,206.7c0.8,1,0.7,2.4-0.3,3.2c-0.4,0.3-0.9,0.5-1.4,0.5C805.2,1272.3,804.6,1272,804.1,1271.5z"/>
		</g>
		<g>
			<path class="st12" d="M474.4,1071.5c0,0.1-0.1,0.8-0.2,1.9c-0.2,1.4-0.4,3.4-0.7,6c-4.8,40.3-26.2,225-34,383.8
				c-0.9,18.8-1.6,37.2-2.1,54.9c-0.1,5-0.2,10-0.4,14.9h-5.8c0.1-6,0.3-12,0.4-18.1c0.5-17.6,1.2-35.8,2.1-54.3
				c7.9-159.6,29.4-344.3,34-382.7c0-0.3,0.1-0.6,0.1-0.8c0.5-3.9,0.7-6,0.8-6.3c0.2-1.6,1.7-2.7,3.3-2.5
				C473.5,1068.4,474.6,1069.9,474.4,1071.5z"/>
		</g>
		<g>
			<polygon class="st8" points="447.9,1058 462.2,1046.3 477.5,1049.2 477.9,1070.8 464.6,1080.1 454,1077.5 			"/>
		</g>
		<g>
			<polygon class="st12" points="449.5,1071.4 431.8,1058.7 442.4,1030.6 469.8,1041.5 538,1029.3 539.2,1057.1 478.4,1075.5 
				468.4,1052.7 			"/>
		</g>
		<g>
			<path d="M357,1094.8l-4.3,45.6l-3.6,38.4l-2.1,22.1L315.4,1533h-4.6l32-336.2l1.6-16.9l3.6-38l4.5-47.5c0.1-1.3,1.3-2.2,2.5-2.1
				c0,0,0,0,0.1,0C356.3,1092.5,357.2,1093.6,357,1094.8z"/>
		</g>
		<g>
			<path class="st8" d="M218.5,1201.6c-5.6,1.5-11,4.1-15.7,7.6c-33.3,25-30.2,73.8-43.9,107.2c-77-218.2,176.9-101.8,294.6-238.4
				c7.1-8.3,6.6-1.6,12.6-11.8c-1.3,5.6-0.3,9.6-1.8,14.7C427.8,1197.2,306.2,1177.8,218.5,1201.6z"/>
		</g>
	</g>
	<g>
		<g>
			<g>
				<path class="st9" d="M1042.6,1032.8c0,0,30.4,38,52.4,52.1c22,14.1,52.3,28.7,56.3,87.8c4,59,60.6,53.3,73.5,133.7
					s-132.7,145.5-138,145.6c-5.3,0.1-79.2-191.9-79.6-214.7C1006.8,1214.5,1042.6,1032.8,1042.6,1032.8z"/>
			</g>
		</g>
		<g>
			<g>
				<g>
					<g>
						<g>
							<g>
								<g>
									<path class="st9" d="M842.6,1105.4c-63.2,118.2,26.7,115.9,35.2,176.7c8.5,60.8,148.7-54.5,148.7-54.5s65.5,58.3,85.3,0.3
										c19.8-58-35-127.4-50.8-145.8c-11.8-13.7-15.7-48.9-23.3-81.9c-7.6-32.9-36-31.9-52-36.6c-32.3-9.5-35.2-31.2-68.6-13.8
										c-45.7,23.8-39.1,75.2-39.1,75.2C885,1062.5,852.7,1086.6,842.6,1105.4z"/>
								</g>
							</g>
						</g>
					</g>
				</g>
			</g>
		</g>
		<g>
			<g>
				<g>
					<g>
						<g>
							<g>
								<g>
									<g>
										<g>
											<path class="st16" d="M974.6,1196.7l29.6-166.9l-90.4-11.5c0,0-25.7,79-16.2,99.6c0,0,4.5,10.9,19.3,14.2l-9,50.9
												L974.6,1196.7z"/>
										</g>
									</g>
								</g>
							</g>
						</g>
					</g>
				</g>
			</g>
			<g>
				<g>
					<g>
						<g>
							<g>
								<g>
									<g>
										<g>
											<path class="st6" d="M918,1074.9l-0.5,0.2l0.1,0.6c0.1,0.3,1.5,8.5,6.6,10.8c0,0,0.1,0,0.1,0c0.3,0.1,0.6-0.1,0.7-0.4
												c0.1-0.3,0-0.7-0.3-0.9c-3.8-1.7-5.3-7.4-5.7-9.2c6.1-2.1,10.3-5.5,12.3-10.3c3.3-7.8-0.2-16.1-0.3-16.5
												c-0.1-0.3-0.5-0.5-0.8-0.3c-0.3,0.2-0.4,0.5-0.3,0.9c0,0.1,3.4,8.2,0.3,15.4C928.1,1069.7,924.1,1073,918,1074.9z"/>
										</g>
									</g>
								</g>
							</g>
						</g>
					</g>
				</g>
			</g>
			<g>
				<g>
					<g>
						<g>
							<g>
								<g>
									<g>
										<g>
											<path class="st6" d="M916.9,1132.1l-3.6,20.5c26.5-3,58.2-25.2,58.2-25.2C949.4,1136.7,916.9,1132.1,916.9,1132.1z"/>
										</g>
									</g>
								</g>
							</g>
						</g>
					</g>
				</g>
			</g>
			<g>
				<g>
					<g>
						<g>
							<g>
								<g>
									<g>
										<g>
											<path class="st8" d="M940.9,1048.9c14.4-8.3,25.4,9.5,25.9,10.2c0.2,0.3,0.5,0.5,0.8,0.6c0.3,0.1,0.6,0,0.9-0.2
												c0.6-0.4,0.7-1.2,0.4-1.8c-0.1-0.2-12.7-20.6-29.1-11.1c-0.6,0.3-0.8,1.2-0.5,1.8C939.6,1049,940.3,1049.2,940.9,1048.9z
												"/>
										</g>
									</g>
								</g>
							</g>
						</g>
					</g>
				</g>
			</g>
			<g>
				<g>
					<g>
						<g>
							<g>
								<g>
									<g>
										<g>
											<path class="st8" d="M910.9,1040.6c6.1-3.8,14.2,7,14.2,7.1c0.2,0.3,0.5,0.4,0.7,0.5c0.3,0.1,0.7,0,1-0.3
												c0.5-0.5,0.6-1.3,0.2-1.9c-0.4-0.5-9.4-12.7-17.4-7.8c-0.6,0.4-0.8,1.2-0.5,1.8C909.5,1040.7,910.3,1040.9,910.9,1040.6z
												"/>
										</g>
									</g>
								</g>
							</g>
						</g>
					</g>
				</g>
			</g>
			<g>
				<g>
					<g>
						<g>
							<g>
								<g>
									<g>
										<g>
											<path class="st17" d="M916.9,1056.8c0.4-2-0.9-4-2.7-4.3c-1.9-0.4-3.7,0.9-4,2.9c-0.4,2,0.9,4,2.7,4.3
												C914.8,1060.2,916.6,1058.9,916.9,1056.8z"/>
										</g>
									</g>
								</g>
							</g>
						</g>
					</g>
				</g>
			</g>
			<g>
				<g>
					<g>
						<g>
							<g>
								<g>
									<g>
										<g>
											<path class="st17" d="M946.9,1063c0.4-2-0.9-4-2.7-4.3c-1.9-0.4-3.7,0.9-4,2.9c-0.4,2,0.9,4,2.7,4.3
												C944.7,1066.3,946.6,1065,946.9,1063z"/>
										</g>
									</g>
								</g>
							</g>
						</g>
					</g>
				</g>
			</g>
			<g>
				<g>
					<g>
						<g>
							<g>
								<g>
									<g>
										<g>
											<path class="st16" d="M1018.4,1093.9c2-11.3-4.9-22.2-15.4-24.3c-10.5-2.2-20.6,5.2-22.6,16.5
												c-2,11.3,4.9,22.2,15.4,24.3C1006.3,1112.6,1016.4,1105.2,1018.4,1093.9z"/>
										</g>
									</g>
								</g>
							</g>
						</g>
					</g>
				</g>
			</g>
			<g>
				<g>
					<g>
						<g>
							<g>
								<g>
									<g>
										<g>
											<path class="st6" d="M1000.6,1082.2c4.1-1.4,8.4,1.1,8.5,1.1c0.3,0.2,0.7,0.1,0.8-0.3c0.2-0.3,0.1-0.7-0.2-0.9
												c-0.2-0.1-4.8-2.9-9.4-1.2c-2.7,0.9-4.8,3.1-6.2,6.5l-0.9,2.2l1.8-1.3c0.2-0.2,5.5-3.9,10.2,0.7c2.6,2.5,2.2,6.2,1.1,8.5
												c-1.2,2.4-3.8,5-7.4,4.2c-0.3-0.1-0.7,0.2-0.7,0.5c-0.1,0.4,0.1,0.7,0.5,0.8c0,0,0.1,0,0.1,0c4,0.8,7.2-1.9,8.7-4.9
												c1.7-3.6,1.2-7.5-1.4-10.1c-3.6-3.6-7.6-2.7-9.9-1.8C997.2,1084.1,998.7,1082.8,1000.6,1082.2z"/>
										</g>
									</g>
								</g>
							</g>
						</g>
					</g>
				</g>
			</g>
		</g>
		<g>
			<g>
				<g>
					<g>
						<g>
							<g>
								<g>
									<path class="st16" d="M1004.2,1029.7c0,0,0.3-32.6-39.4-37.2c-39.7-4.6-51.1,25.7-51.1,25.7l2.9,0.4l41.2,11.7
										L1004.2,1029.7z"/>
								</g>
							</g>
						</g>
					</g>
				</g>
			</g>
		</g>
		<g>
			<g>
				<g>
					<g>
						<g>
							<g>
								<g>
									<path class="st9" d="M970.9,1022.9c0,0,3.2,43.7,26.3,46.4c23.2,2.8,20.9-57.2,20.9-57.2s-39.4-27.5-42.1-28.1
										c-2.7-0.6-47.5-12.8-47.5-12.8l-10.1,20.3C918.5,991.6,938.3,1022.2,970.9,1022.9z"/>
								</g>
							</g>
						</g>
					</g>
				</g>
			</g>
		</g>
		<g>
			<g>
				<g>
					<g>
						<g>
							<g>
								<g>
									<g>
										<path class="st18" d="M937.2,1071.4c-1-0.2-1.3,1.4-0.3,1.6C937.9,1073.2,938.1,1071.6,937.2,1071.4z"/>
									</g>
								</g>
							</g>
						</g>
					</g>
				</g>
			</g>
		</g>
		<g>
			<g>
				<g>
					<g>
						<g>
							<g>
								<g>
									<g>
										<path class="st18" d="M941.2,1075.2c-1-0.2-1.3,1.4-0.3,1.6C941.9,1077.1,942.2,1075.4,941.2,1075.2z"/>
									</g>
								</g>
							</g>
						</g>
					</g>
				</g>
			</g>
		</g>
		<g>
			<g>
				<g>
					<g>
						<g>
							<g>
								<g>
									<g>
										<path class="st18" d="M950.6,1071.1c-1-0.2-1.3,1.4-0.3,1.6C951.3,1072.9,951.5,1071.3,950.6,1071.1z"/>
									</g>
								</g>
							</g>
						</g>
					</g>
				</g>
			</g>
		</g>
		<g>
			<g>
				<g>
					<g>
						<g>
							<g>
								<g>
									<g>
										<path class="st18" d="M956.7,1078.4c-1-0.2-1.3,1.4-0.3,1.6C957.3,1080.2,957.6,1078.6,956.7,1078.4z"/>
									</g>
								</g>
							</g>
						</g>
					</g>
				</g>
			</g>
		</g>
		<g>
			<g>
				<g>
					<g>
						<g>
							<g>
								<g>
									<g>
										<path class="st18" d="M965.5,1072.1c-1-0.2-1.3,1.4-0.3,1.6C966.2,1073.9,966.5,1072.3,965.5,1072.1z"/>
									</g>
								</g>
							</g>
						</g>
					</g>
				</g>
			</g>
		</g>
		<g>
			<g>
				<g>
					<g>
						<g>
							<g>
								<g>
									<g>
										<path class="st18" d="M966.1,1084.3c-1-0.2-1.3,1.4-0.3,1.6C966.8,1086.2,967.1,1084.5,966.1,1084.3z"/>
									</g>
								</g>
							</g>
						</g>
					</g>
				</g>
			</g>
		</g>
		<g>
			<g>
				<g>
					<g>
						<g>
							<g>
								<g>
									<g>
										<path class="st18" d="M922.9,1063.5c-1-0.2-1.3,1.4-0.3,1.6C923.6,1065.3,923.9,1063.7,922.9,1063.5z"/>
									</g>
								</g>
							</g>
						</g>
					</g>
				</g>
			</g>
		</g>
		<g>
			<g>
				<g>
					<g>
						<g>
							<g>
								<g>
									<g>
										<path class="st18" d="M916.2,1068.9c-1-0.2-1.3,1.4-0.3,1.6C916.9,1070.8,917.1,1069.1,916.2,1068.9z"/>
									</g>
								</g>
							</g>
						</g>
					</g>
				</g>
			</g>
		</g>
		<g>
			<g>
				<g>
					<g>
						<g>
							<g>
								<g>
									<g>
										<path class="st18" d="M909.9,1064.6c-1-0.2-1.3,1.4-0.3,1.6C910.6,1066.4,910.9,1064.8,909.9,1064.6z"/>
									</g>
								</g>
							</g>
						</g>
					</g>
				</g>
			</g>
		</g>
		<g>
			<g>
				<g>
					<g>
						<g>
							<g>
								<g>
									<g>
										<path class="st18" d="M907.4,1076c-1-0.2-1.3,1.4-0.3,1.6C908,1077.8,908.3,1076.2,907.4,1076z"/>
									</g>
								</g>
							</g>
						</g>
					</g>
				</g>
			</g>
		</g>
		<g>
			<g>
				<g>
					<g>
						<g>
							<g>
								<g>
									<g>
										<path class="st18" d="M903.5,1068.2c-1-0.2-1.3,1.4-0.3,1.6C904.2,1070,904.5,1068.4,903.5,1068.2z"/>
									</g>
								</g>
							</g>
						</g>
					</g>
				</g>
			</g>
		</g>
		<g>
			<g>
				<g>
					<g>
						<g>
							<g>
								<g>
									<g>
										<path class="st18" d="M906.5,1058.4c-1-0.2-1.3,1.4-0.3,1.6C907.1,1060.3,907.4,1058.6,906.5,1058.4z"/>
									</g>
								</g>
							</g>
						</g>
					</g>
				</g>
			</g>
		</g>
		<g>
			<g>
				<g>
					<g>
						<g>
							<g>
								<g>
									<g>
										<path class="st18" d="M945.7,1081.5c-1-0.2-1.3,1.4-0.3,1.6C946.4,1083.3,946.7,1081.7,945.7,1081.5z"/>
									</g>
								</g>
							</g>
						</g>
					</g>
				</g>
			</g>
		</g>
		<g>
			<g>
				<g>
					<g>
						<g>
							<g>
								<g>
									<g>
										<g>
											<path class="st7" d="M928.6,1104.5c8.6-0.1,11.7-10.4,11.7-10.4s-23.2,0.3-23.6,0.3
												C916.6,1094.4,919.9,1104.6,928.6,1104.5z"/>
										</g>
									</g>
								</g>
							</g>
						</g>
					</g>
				</g>
			</g>
		</g>
		<g>
			<g>
				<g>
					<g>
						<g>
							<g>
								<g>
									<g>
										<g>
											<path class="st5" d="M745.6,602.8l1.4-1.7c-0.2-4.8,0.1-14.3-0.2-25.5c-8.8-0.3-15.5-0.8-15.6-1.9l-1.9,0.2
												c-0.5,0.1-1-0.1-1.3-0.4c-8.9,0.8-20.2,2.1-29.7,2.6c-6.8,0.3-12.6-1.8-16.1,4.1c-2.1,3.4-2.2,21.5-1.9,27.9l-1,43
												c11.8-1,64.3,11.9,66,9.7L745.6,602.8z"/>
										</g>
									</g>
								</g>
							</g>
						</g>
					</g>
				</g>
			</g>
			<g>
				<g>
					<g>
						<g>
							<g>
								<g>
									<g>
										<g>
											<path class="st5" d="M733.5,634.4c-5,1.4-9.5-0.4-9.8-1.3l-7.6-29.6c-0.8-3.3,1.5-7,5.6-8.3c4.7-1.6,9.5,0.3,10.4,4
												l7.1,27.6C740,629.8,736.4,633.6,733.5,634.4z"/>
										</g>
									</g>
								</g>
							</g>
						</g>
					</g>
				</g>
			</g>
			<g>
				<g>
					<g>
						<g>
							<g>
								<g>
									<g>
										<g>
											<path class="st5" d="M722.5,569.6c-4.9,0.2-7.3,3.8-7.3,4.7l0.3,27.4c0,3.3,3.3,6.1,7.5,6.1c4.6,0,8.4-3,8.4-6.6
												l-0.3-27.3C731,573.9,727.4,569.4,722.5,569.6z"/>
										</g>
									</g>
								</g>
							</g>
						</g>
					</g>
				</g>
			</g>
			<g>
				<g>
					<g>
						<g>
							<g>
								<g>
									<g>
										<g>
											<path class="st5" d="M708.3,570.1c-4.9,0.2-8.8,2.9-8.8,3.8l-0.4,29.5c0,3.3,3.1,6.1,7.3,6.2c4.6,0.1,8.5-2.9,8.5-6.5
												l0.4-30.3C715.4,572.8,713.2,569.9,708.3,570.1z"/>
										</g>
									</g>
								</g>
							</g>
						</g>
					</g>
				</g>
			</g>
			<g>
				<g>
					<g>
						<g>
							<g>
								<g>
									<g>
										<g>
											<path class="st5" d="M692.6,573.4c-4.6,0.1-8.2,2.6-8.2,3.5l-0.8,27.5c-0.1,3.1,2.8,5.7,6.7,5.9c4.3,0.1,7.9-2.6,8-6
												l0.8-28.2C699.2,576,697.2,573.3,692.6,573.4z"/>
										</g>
									</g>
								</g>
							</g>
						</g>
					</g>
				</g>
			</g>
			<g>
				<g>
					<g>
						<g>
							<g>
								<g>
									<g>
										<g>
											<g>
												<path class="st6" d="M713.8,572c0.1-0.5,0.7-1,1.4-1c0.8,0,1.5,0.5,1.5,1.1l0.2,29.5c0,2.8,2.7,5,6.1,5
													c1.8,0,3.5-0.5,4.8-1.6c1.3-1,2-2.4,2-3.8l-0.3-27c0-0.6,0.7-1.2,1.5-1.2c0.8,0,1.5,0.5,1.5,1.1l0.3,27
													c0,2-1,4.1-2.9,5.5c-1.9,1.5-4.4,2.3-7,2.3c-4.9,0-8.8-3.2-8.9-7.2l-0.2-29.5C713.8,572.2,713.8,572.1,713.8,572z"/>
											</g>
										</g>
									</g>
								</g>
							</g>
						</g>
					</g>
				</g>
			</g>
			<g>
				<g>
					<g>
						<g>
							<g>
								<g>
									<g>
										<g>
											<path class="st5" d="M739.7,570.7c-4.9,0.1-8.8,3-8.8,3.8l-0.1,29.5c0,3.2,3,6,7.1,6.2c4.7,0.2,8.7-2.9,8.7-6.5l0.1-27.5
												C746.8,573.2,742.5,570.7,739.7,570.7z"/>
										</g>
									</g>
								</g>
							</g>
						</g>
					</g>
				</g>
			</g>
			<g>
				<g>
					<g>
						<g>
							<g>
								<g>
									<g>
										<g>
											<g>
												<path class="st6" d="M729.6,574.4c0.2-0.5,0.7-0.9,1.5-1c0.8,0,1.5,0.5,1.5,1.1l-0.2,29.5c0,2.8,2.6,5,6,5
													c1.8,0,3.5-0.5,4.8-1.5c1.3-1,2-2.3,2-3.8l0.1-27c0-0.6,0.7-1.2,1.5-1.2c0.8,0,1.5,0.5,1.5,1.1l-0.1,27c0,2-1.1,4-3,5.5
													c-1.9,1.5-4.4,2.3-7.1,2.2c-4.9-0.1-8.8-3.3-8.8-7.3l0.2-29.5C729.6,574.5,729.6,574.5,729.6,574.4z"/>
											</g>
										</g>
									</g>
								</g>
							</g>
						</g>
					</g>
				</g>
			</g>
			<g>
				<g>
					<g>
						<g>
							<g>
								<g>
									<g>
										<g>
											<g>
												<path class="st6" d="M698.9,574.6c0.1-0.5,0.8-1,1.5-1c0.8,0,1.5,0.5,1.5,1.1l-0.9,28.8c0,2.8,2.3,4.8,5.6,4.9
													c1.8,0,3.5-0.5,4.8-1.5c1.3-1,2.1-2.3,2.1-3.8l0.4-30.3c0-0.6,0.7-1.2,1.5-1.2c0.8,0,1.5,0.5,1.5,1.1l-0.4,30.3
													c0,2-1.1,4-3,5.5c-1.9,1.5-4.4,2.3-7.1,2.2c-4.9-0.1-8.4-3.1-8.4-7.2l0.9-28.8C698.8,574.7,698.8,574.7,698.9,574.6z"/>
											</g>
										</g>
									</g>
								</g>
							</g>
						</g>
					</g>
				</g>
			</g>
			<g>
				<g>
					<g>
						<g>
							<g>
								<g>
									<g>
										<g>
											<g>
												<path class="st6" d="M684,576.9c0.1-0.5,0.8-1,1.5-1c0.8,0,1.5,0.5,1.5,1.1l-0.8,27.5c-0.1,2.5,2.3,4.6,5.4,4.7
													c1.6,0,3.2-0.4,4.5-1.3c1.2-0.9,1.9-2.1,2-3.4l0.8-28.2c0-0.6,0.7-1.2,1.5-1.2c0.8,0,1.5,0.5,1.5,1.1l-0.8,28.2
													c-0.1,1.9-1.1,3.8-2.9,5.2c-1.8,1.4-4.2,2.1-6.7,2c-4.6-0.1-8.2-3.2-8.1-7l0.8-27.5C683.9,577,684,576.9,684,576.9z"/>
											</g>
										</g>
									</g>
								</g>
							</g>
						</g>
					</g>
				</g>
			</g>
			<g>
				<g>
					<g>
						<g>
							<g>
								<g>
									<polygon class="st5" points="723.7,641.5 719.7,616.1 717.5,604 718.7,600.1 724.7,597 731.2,598.7 734.3,604.6 
										742.9,629.4 731.8,646.2 									"/>
								</g>
							</g>
						</g>
					</g>
				</g>
			</g>
			<g>
				<g>
					<g>
						<g>
							<g>
								<g>
									<g>
										<g>
											<g>
												<path class="st6" d="M721.1,637.7c0.3,0.5,1,0.6,1.8,0.4c0.8-0.3,1.3-1,1.1-1.7l-5.2-30.2c-0.9-2.7,1-5.9,4.2-7.2
													c1.8-0.7,3.6-0.8,5.2-0.3c1.6,0.5,2.8,1.5,3.2,2.9l8.8,26.5c0.2,0.6,1,0.9,1.9,0.6c0.8-0.3,1.3-1,1.1-1.7l-8.8-26.5
													c-0.7-2-2.4-3.6-4.7-4.3c-2.4-0.7-5.1-0.6-7.7,0.5c-4.8,1.9-7.6,6.5-6.2,10.4l5.2,30.2
													C721,637.5,721.1,637.6,721.1,637.7z"/>
											</g>
										</g>
									</g>
								</g>
							</g>
						</g>
					</g>
				</g>
			</g>
		</g>
		<g>
			<path class="st19" d="M676,641.6c0,0,45.4-17.6,78.2,15.7l-4.9,32.7l-75.9-5.2L676,641.6z"/>
		</g>
		<g>
			<path class="st20" d="M635.4,972.2c2.4,8.3,108.3,349.6,108.3,349.6l82.5-168.5l-4.6-11.4l-71.1-190.1l2.6-265.8
				c0,0-17.5-30.4-85.9-13.4C667.2,672.6,630.4,954.3,635.4,972.2z"/>
		</g>
		<g>
			<path class="st20" d="M791.8,1424.9c-12.8,71.5-17.1,93.9-19.6,108.1h-80.1c5.9-11.1,85.6-161.7,87.6-173.1
				C782.6,1344.4,790.1,1409.2,791.8,1424.9z"/>
		</g>
		<g>
			<path class="st21" d="M1056.1,1196.2c0,0-0.8,19.2-2.7,49.5c-1.8,28-4.5,65.5-8.6,106.2c-0.3,2.6-0.5,5.2-0.8,7.8
				c-6,57.9-14.7,121.5-27,173.3H758.5c3.3-50.7,8.2-115.2,13.8-153.4c0.2-1.1,0.3-2.2,0.5-3.3c1.2-7.7,2.4-14.2,3.6-19.1
				c4.8-19.1,15.9-52.6,27.4-86.1c0.3-0.9,0.6-1.7,0.9-2.6c0.3-0.8,0.6-1.6,0.9-2.5c7.6-22,15.3-43.6,21.6-60.9
				c7.8-21.6,13.2-36.3,13.2-36.3l38.6,4.9l8.2,1l4.7,0.6l0.1,0l14.6,1.9l2.2,0.3l2.6,0.3l47.6,6l5.9,0.7l11.5,1.5l19.3,2.5
				l17.6,2.2l36.4,4.6l1.9,0.2l0.3,0l2.2,0.3L1056.1,1196.2z"/>
		</g>
		<g>
			<path class="st22" d="M825.5,1151.1c-2.8-1.9-109.3,163-110.8,338.9l63.9-122.6c0,0,68.6-163.5,114.1-192.4
				C892.7,1174.9,865.1,1177,825.5,1151.1z"/>
		</g>
		<g>
			<path class="st20" d="M1313.4,1533h-117.3c-96-104.3-85.6-93.2-86.7-94.2c-8.5,28.5-18.1,67.2-23.5,94.2H950
				c5.8-125.6,104.5-343.9,104.9-343.8c13.1,4.6,36,15.6,59.1,31c18.8,12.5,27.8,19.9,47.9,43.5c48.9,57,121.3,165.5,139.1,213.4
				C1307.2,1493.3,1311,1516.1,1313.4,1533z"/>
		</g>
		<g>
			<path class="st22" d="M1123,1226.5c-62.7,62.2-114.5,221.6-139.3,306.6h-32.5c9.4-99.2,43.5-207.8,83.1-299.3
				c9.2-21.2,20.4-44.6,20.6-44.6C1080.7,1193.8,1106.1,1209,1123,1226.5z"/>
		</g>
		<g>
			<path class="st17" d="M1056.7,1190.2c-0.1,0.2-1,2.2-2.6,5.8c-3.2,7.3-9.3,21.2-17,39.9c-5.3,13-11.4,28.2-17.8,45.2
				c-26.5,69.9-59,168.4-67.8,252h-4.2c9.1-86.1,43-187.7,69.9-258.3c5.9-15.5,11.5-29.5,16.4-41.5c7.1-17.2,12.8-30.3,16.1-37.9
				c2-4.5,3.1-7,3.2-7.2l1.9,1l0,0L1056.7,1190.2z"/>
		</g>
		<g>
			<path class="st16" d="M909.4,1161.8l-5.7,32c0,0,11.5,10.4,12.1,10.4c0.6,0,36.8,4,39.2,0c2.4-4,7.3-16.7,9.4-19
				c2.1-2.3,13.3-12.6,11.5-13.4c-1.7-0.8-13.7-2.4-14.2-2.5C961.3,1169.3,909.4,1161.8,909.4,1161.8z"/>
		</g>
		<g>
			<path class="st17" d="M1198.4,1533h-5.2l-0.8-0.9l-4.6-5l-8.1-8.8l-69.1-75.9l-0.6-0.7l-1.1-1.2l-1.6-1.8l-28.4-31.2l3-3.1
				l32.1,35.2l68.7,75.5l5.9,6.5l4.6,5l4.8,5.2l0.2,0.4C1198.1,1532.3,1198.2,1532.6,1198.4,1533z"/>
		</g>
		<g>
			<path class="st17" d="M1111.5,1439.5c0,0.1-0.1,0.5-0.3,1.1c-0.1,0.2-0.1,0.4-0.2,0.7c-0.1,0.3-0.2,0.7-0.3,1.1
				c-3,11-14,51.1-22.3,90.6h-4.3c7.8-37.3,17.9-75.1,21.8-89.2c0.7-2.4,1.1-4.1,1.4-5.1c0.1-0.3,0.1-0.5,0.2-0.6l2,0.7l0,0
				L1111.5,1439.5z"/>
		</g>
		<g>
			<path class="st23" d="M913.3,1152.5c0,0-4.9,38.8,1.4,47.2c0,0,44.1-3.6,66.1-37.3c0,0,13.3,18.8,16.5,24.5
				c0,0-51.8,53.6-68.3,67.1l-16.3-45.2l-31.4,29.4c0,0-1.9-40.2,1.1-49.3C885.5,1180,913.3,1152.5,913.3,1152.5z"/>
		</g>
		<g>
			<path class="st17" d="M1305.6,1500.4c-2.7-13.6-6.6-22.8-27.4-65.5c-20.8-42.6-116.8-168.5-117.7-169.7l3.2-2.8
				c4,5.2,97.2,127.5,118.2,170.5c21.1,43.1,25,52.5,27.8,66.6L1305.6,1500.4z"/>
		</g>
		<g>
			<path class="st17" d="M742.4,1328.3c-1-3.4-103.8-338.5-109-355.4c-5.3-17.4,30.1-289.1,31.6-300.7l4.1,0.6
				c-10.3,78.4-35.9,285-31.8,298.7c5.1,16.9,107.9,352,109,355.4L742.4,1328.3z"/>
		</g>
		<g>
			<polygon class="st17" points="737.6,980.6 734,978.4 748.5,951.2 751,686 755.2,686 752.6,952.4 			"/>
		</g>
		<g>
			<polygon class="st17" points="801.6,1094.6 748.6,952.6 752.5,951 805.4,1092.9 			"/>
		</g>
	</g>
	<g>
		<g>
			<g>
				<g>
					<g>
						<path class="st5" d="M1615.8,1138.6c0,0-52.2-86.9-56.8-100.3c-10.5-30.3-38.7-309-38.7-309l83.9-5.9l46.7,219.5l62.5,136.9
							L1615.8,1138.6z"/>
					</g>
				</g>
			</g>
		</g>
		<g>
			<g>
				<g>
					<g>
						<g>
							<path class="st5" d="M1510.5,633.7c4-1.5,8.5,0.6,10.3,4.5l11,24.4c0.3,0.8,1.1,1.2,2,1.1l0,0c1.2-0.1,2-1.3,1.7-2.5
								l-11.3-37.8c-1.3-4.3,1.3-8.2,5.8-8.6h0c4.5-0.4,9.2,2.8,10.5,7.1l11.5,38.6c0.3,0.9,1.1,1.5,2.1,1.4l0.7-0.1
								c1.1-0.1,1.9-1.1,1.8-2.1l-4.2-44.5c-0.4-4.3,2.5-8.3,6.7-9c4.6-0.7,8.9,2.6,9.3,7.2l4.2,44.7c0.1,1.1,1.1,1.9,2.1,1.8
								l2.1-0.2c1-0.1,1.7-0.9,1.8-1.9l1.5-41.7c0.2-4.3,3.5-7.9,7.8-8c4.7-0.1,8.5,3.7,8.3,8.4c0,0,1.1,63.7,2.1,73.7l18-14.9
								c2.8-3.4,7.9-3.9,11.4-1.1h0c3.4,2.8,3.9,7.9,1.1,11.4l-28.3,43.6c-1.9,2.2-7.6,2.8-12.4,2.1c-46.9,8-54.2,8.9-67,9.9
								l-3-50.8c-0.9-14.7-4.4-29-10.4-42.4l-1.5-3.4C1504.1,640.4,1506.1,635.4,1510.5,633.7z"/>
						</g>
					</g>
				</g>
			</g>
		</g>
		<g>
			<g>
				<g>
					<g>
						<g>
							<path class="st5" d="M2091.3,1192.1c0,0,67.6-75.5,74.6-87.9c16-27.8,96-296.2,96-296.2l-81.3-21.5l-87,206.8l-87.1,122.7
								L2091.3,1192.1z"/>
						</g>
					</g>
				</g>
			</g>
			<g>
				<g>
					<g>
						<g>
							<g>
								<path class="st5" d="M2289.4,716c-3.7-2.2-8.5-1-10.9,2.5l-15.3,21.9c-0.5,0.7-1.3,1-2.1,0.8l0,0c-1.2-0.3-1.8-1.7-1.2-2.8
									l18.2-35c2.1-4,0.2-8.3-4.1-9.6l0,0c-4.3-1.3-9.6,1-11.7,5l-18.5,35.7c-0.4,0.8-1.4,1.2-2.3,1l-0.6-0.2
									c-1-0.3-1.6-1.4-1.3-2.4l12.4-42.9c1.2-4.1-0.9-8.6-4.9-10.1c-4.4-1.6-9.2,0.9-10.5,5.3l-12.5,43.1c-0.3,1-1.4,1.6-2.4,1.3
									l-2-0.6c-0.9-0.3-1.5-1.2-1.4-2.2l6.3-41.3c0.7-4.2-2-8.4-6.2-9.4c-4.6-1-9,2.1-9.7,6.7c0,0-13,62.4-15.8,72l-14.9-18
									c-2.1-3.9-7.1-5.3-11-3.2v0c-3.9,2.1-5.3,7.1-3.2,11l19.6,48.1c1.4,2.5,7,4.2,11.8,4.4c44.6,16.7,51.6,18.9,64,22.3
									l12.5-49.3c3.6-14.2,9.8-27.7,18.2-39.7l2.1-3C2294.5,723.7,2293.4,718.5,2289.4,716z"/>
							</g>
						</g>
					</g>
				</g>
			</g>
		</g>
		<g>
			<g>
				<g>
					<g>
						<g>
							<g>
								<path class="st5" d="M1834.8,947.7l-31.4,80.4c0,0-11.7,26.7,10.7,39.4l-26.9,50.9c-6.9,12.8,4.4,12.5,15.7,21.7
									c5.5,4.5,12.5,8.9,21.1,12.2c27.2,10.6,49.8-4,56.1-13.3c6.2-9.3,18.5-60.6,18.5-60.6l10.2-23.6l33.1-93.9L1834.8,947.7z"/>
							</g>
						</g>
					</g>
				</g>
			</g>
			<g>
				<g>
					<g>
						<g>
							<g>
								<path class="st8" d="M1880,1017.1c0.2,0.2,0.5,0.3,0.9,0.3c0.7,0,1.2-0.6,1.2-1.2c0-0.2-0.8-24.1-20.4-25.3
									c-0.7,0-1.2,0.5-1.3,1.1c0,0.7,0.5,1.2,1.1,1.3c17.3,1.1,18.1,22.1,18.1,23C1879.6,1016.6,1879.8,1016.9,1880,1017.1z"/>
							</g>
						</g>
					</g>
				</g>
			</g>
			<g>
				<g>
					<g>
						<g>
							<g>
								<path class="st8" d="M1843.4,983.8c0.3-0.1,0.6-0.3,0.8-0.6c0.3-0.6,0.1-1.3-0.4-1.7c-0.6-0.3-13.8-7.9-19.8-0.4
									c-0.4,0.5-0.3,1.3,0.2,1.7c0.5,0.4,1.3,0.3,1.7-0.2c4.7-5.9,16.6,0.9,16.7,1C1842.9,983.8,1843.2,983.8,1843.4,983.8z"/>
							</g>
						</g>
					</g>
				</g>
			</g>
			<g>
				<g>
					<g>
						<g>
							<g>
								<path d="M1860,1009.1c-0.7,1.9,0.2,4,2.1,4.7c1.9,0.7,4-0.2,4.7-2.1c0.7-1.9-0.2-4-2.1-4.7
									C1862.9,1006.3,1860.8,1007.2,1860,1009.1z"/>
							</g>
						</g>
					</g>
				</g>
			</g>
			<g>
				<g>
					<g>
						<g>
							<g>
								<path d="M1825.3,991.6c-0.7,1.9,0.2,4,2.1,4.7c1.9,0.7,4-0.2,4.7-2.1c0.7-1.9-0.2-4-2.1-4.7
									C1828.1,988.8,1826,989.7,1825.3,991.6z"/>
							</g>
						</g>
					</g>
				</g>
			</g>
			<g>
				<g>
					<g>
						<g>
							<g>
								<path class="st24" d="M1937,964l-29.4,19.4c0,0-66.1-0.1-85.2-38c-19.1-37.9-5.1-47.1,8.7-56.9c6.8-4.9,32.3-10.2,52.9,10.6
									c11.2,11.3,28.3-2.7,40.6,12.5c12.3,15.2,24.9,38.2,20.4,43.6C1940.3,960.6,1937,964,1937,964z"/>
							</g>
						</g>
					</g>
				</g>
			</g>
			<g>
				<g>
					<g>
						<g>
							<g>
								<path class="st24" d="M1940.2,952.2c0,0,26.6,8.9,24.1,36.9c-2.5,28-17.5,37.3-20.7,44.7c-3.2,7.4-17.8,59.9-51.9,42.3
									l23-87.2l25.3-28.4L1940.2,952.2z"/>
							</g>
						</g>
					</g>
				</g>
			</g>
			<g>
				<g>
					<g>
						<g>
							<g>
								<path class="st5" d="M1888.5,1018.9c-4.4,11.3,1.2,23.9,12.4,28.3c11.3,4.4,23.9-1.2,28.3-12.4c4.4-11.3-1.2-23.9-12.4-28.3
									C1905.6,1002,1892.9,1007.6,1888.5,1018.9z"/>
							</g>
						</g>
					</g>
				</g>
			</g>
			<g>
				<g>
					<g>
						<g>
							<g>
								<path class="st6" d="M1905.5,1039.9c4.2,1.7,8.3-0.4,10.5-3.2c2.6-3.3,2.7-7.5,0.4-10.6c-3.4-4.6-8.2-4.4-10.8-3.8
									c1.8-2,3.8-3.1,6.1-3.4c4.9-0.6,9.2,2.9,9.3,2.9c0.3,0.2,0.6,0.2,0.9-0.1c0.2-0.3,0.2-0.6-0.1-0.9
									c-0.2-0.2-4.8-3.9-10.2-3.2c-3.1,0.4-5.8,2.2-8.1,5.4l-1.3,1.8l2-0.9c0.3-0.1,7-2.9,11.3,2.8c2.4,3.2,1.3,6.9-0.4,9.1
									c-1.8,2.3-5.2,4.4-9.1,2.9c0,0-0.1,0-0.1,0c-0.3-0.1-0.7,0-0.8,0.3c-0.1,0.3,0,0.7,0.3,0.8
									C1905.5,1039.9,1905.5,1039.9,1905.5,1039.9z"/>
							</g>
						</g>
					</g>
				</g>
			</g>
			<g>
				<g>
					<g>
						<g>
							<g>
								<path class="st6" d="M1878.3,1065.9c0,0-19.3,44.8-77.8,27l13.7-25.5C1814.1,1067.4,1848.1,1089.2,1878.3,1065.9z"/>
							</g>
						</g>
					</g>
				</g>
			</g>
			<g>
				<g>
					<g>
						<g>
							<g>
								<path class="st6" d="M1839.1,1027.3c0.2,0.1,0.5,0,0.7-0.2c0.2-0.3,0.2-0.6-0.1-0.9l-9.9-8.2l14-25.3
									c0.2-0.3,0.1-0.7-0.2-0.8c-0.3-0.2-0.7-0.1-0.8,0.2l-14.5,26.2l10.7,8.8C1839,1027.3,1839.1,1027.3,1839.1,1027.3z"/>
							</g>
						</g>
					</g>
				</g>
			</g>
			<g>
				<g>
					<g>
						<g>
							<g>
								<path class="st7" d="M1843.6,1041.8c-0.3-0.2-22.2-9.4-22.2-9.4s-0.8,10.2,7.3,13.6
									C1836.8,1049.5,1843.6,1041.8,1843.6,1041.8z"/>
							</g>
						</g>
					</g>
				</g>
			</g>
		</g>
		<g>
			<g>
				<path class="st11" d="M2261.9,821.9l-48,151.5l-2.2,6.9l-36.2,114.3c-0.9,2.8-2,5.6-3.2,8.3l-47.6-25.1
					c-30.8-16.2-49.5-44.3-48.6-69.3l12.6-11.9l14.5-34.6l4.2-10l67.6-161.5C2197.4,791.2,2261.9,821.9,2261.9,821.9z"/>
				<path class="st11" d="M2172.3,1103c-3.5,7.6-8.3,15-14.5,21.3c-0.3,0.2-133.8,137.4-142.9,156.2
					c-6.9,14.3-15.5,232.6-16.3,252.5H1614c1.5-16.5,27.8-306.4,28.4-324.1c-1.9-3.3-52.1-93.9-68-127.9
					c-5.8-11.3-14.7-30.4-20.3-45.3c-7.5-20.1-36.2-283.6-38-301.7c21.3-7.7,69.9-8,92.3-7.3c0.5,2.5,47.5,217.6,45.9,215.4
					c0.9,2.4,86.5,155.8,100.1,162.2c13.3,6.3,186.5,17,201.5,17.9c129.6-122.4,111-104.9,120.3-113.6c-0.1,2.7,0,5.4,0.4,8.6
					c2.8,21,19.1,45.4,48.1,60.6C2174.9,1104.3,2165.9,1099.6,2172.3,1103z"/>
			</g>
		</g>
		<g>
			<g>
				<path d="M1956.4,1123.8l0.4-0.4L2089,998.4l15.5,7.7c0.7,0.4,1.6,0.1,1.9-0.6c0.3-0.7,0.1-1.5-0.6-1.9l-17.2-8.5l-0.7,0.7
					l-132.4,125.1l-57.9-3.8c-0.8,0-1.5,0.5-1.5,1.3c-0.1,0.8,0.5,1.5,1.3,1.5L1956.4,1123.8z"/>
			</g>
		</g>
		<g>
			<g>
				<path d="M2088.8,998.2c0.6,0,1.1-0.3,1.3-0.9l86.3-206.1c0.3-0.7,0-1.6-0.8-1.9c-0.7-0.3-1.6,0-1.9,0.8l-86.3,206.1
					c-0.3,0.7,0,1.6,0.8,1.9C2088.4,998.1,2088.6,998.2,2088.8,998.2z"/>
			</g>
		</g>
		<g>
			<g>
				<path d="M2016.3,1280.6c-0.1,0.9-3.6,49.4-7.8,112.9c-0.5,8.1-1.1,16.4-1.6,25c-0.1,1.6-0.2,3.2-0.3,4.7
					c-2.2,35.4-4.5,73.6-6.3,109.8h-2.8c1.5-29.4,3.2-60,5-89.4c0.3-5.1,0.6-10.1,0.9-15c0.1-1.6,0.2-3.2,0.3-4.8
					c0.7-10.8,1.4-21.3,2-31.5c3-45.9,5.7-83.9,6.9-101.4c0.5-6.5,0.7-10.2,0.8-10.5c0.1-0.8,0.7-1.4,1.5-1.3c0.2,0,0.4,0.1,0.6,0.2
					C2016.1,1279.5,2016.4,1280,2016.3,1280.6z"/>
			</g>
		</g>
		<g>
			<g>
				<path d="M1646.7,1197.5c-0.1,0.6-4,27.2-9.7,78.2c-5.8,52.1-13.4,129.7-20.6,231.1c-0.6,8.6-1.2,17.3-1.8,26.2h-2.8
					c12.1-179.1,25.9-290,30.5-324.4c1-7.5,1.6-11.3,1.6-11.5c0.1-0.8,0.9-1.3,1.6-1.2C1646.3,1196,1646.8,1196.7,1646.7,1197.5z"/>
			</g>
		</g>
		<g>
			<g>
				<path d="M1650.7,924.9c0.1,0,0.2,0,0.3,0c0.8-0.2,1.2-0.9,1.1-1.7l-42.6-197.7l-1.1-0.1c-0.6,0-60-3.1-92.8,7.3
					c-0.7,0.2-1.2,1-0.9,1.8c0.2,0.7,1,1.2,1.8,0.9c29.9-9.5,82.5-7.6,90.7-7.3l42.1,195.6C1649.5,924.5,1650.1,924.9,1650.7,924.9z
					"/>
			</g>
		</g>
		<g>
			<polygon class="st8" points="1801.9,1113.1 1817.5,1102.5 1832.8,1106.9 1831.1,1128.9 1816.8,1137.1 1806.3,1133.4 			"/>
		</g>
		<g>
			<polygon class="st12" points="1802.3,1126.8 1785.5,1112.3 1798.9,1084.7 1825.7,1098.4 1896,1092.4 1894.7,1120.8 
				1831.2,1133.7 1823.2,1109.6 			"/>
		</g>
		<g>
			<path class="st8" d="M1698.8,1375.6c-3.5,4.9-6,10.3-7.5,16.1c-10.2,41.2,23.7,77.7,34.4,112.9
				c-201.4-122.6,75.7-187.6,80.6-371.2c0.3-11.1,17,8.5,15.1-3.4c2.6,5.2-8.5-13.1-6.4-8
				C1861.1,1237.2,1752.6,1300.2,1698.8,1375.6z"/>
		</g>
	</g>
	<g>
		<g>
			<g>
				<g>
					<g>
						<g>
							<path class="st5" d="M2019.5,1397.9c-4.1,6.6-8.3,13.5-12.6,20.5c-1.1,1.8-2.1,3.5-3.2,5.3c-0.1,0.2-0.2,0.3-0.3,0.5
								c-17.8,29.9-35,60.7-43.2,73.6c-0.4,0.7-0.8,1.5-1,2.5c-0.3,1.3-0.6,2.9-0.7,4.7c-0.4,6.6,0.7,16.3,2.9,27.9h-126.1
								c-3.2-13.1-5.1-25.5-5.2-36.7c-0.1-6.2,4.2-18.1,10.9-33.1c0.8-1.8,1.7-3.7,2.6-5.6c18.2-39.1,50.1-94.9,65.9-124.4
								c29.4,25.6,69.5,47.2,95.7,58.8c0.2,0.1,0.4,0.2,0.6,0.3c0.9,0.4,1.9,0.8,2.8,1.2C2012.7,1395.3,2016.3,1396.8,2019.5,1397.9
								z"/>
						</g>
					</g>
				</g>
			</g>
		</g>
		<g>
			<g>
				<g>
					<g>
						<g>
							<g>
								<path class="st9" d="M2149.4,948.4c0,0-18.3-39.2,26.2-73.3c44.5-34.1,53.1,22,70.7,26.9c17.6,4.9,49.2-2.1,61.5,30.4
									c12.4,32.5,15.6,51.4,28.4,65.7c33.8,37.9,40.4,89.3,25.8,151c-14.6,61.7-18.7,120.9-18.7,120.9
									c5.1,29.7-114.1,223-245.6-85.4c-24.7-58.1-19-108.9,7.1-147.9C2120.8,1012.9,2161.6,985.6,2149.4,948.4z"/>
							</g>
						</g>
					</g>
				</g>
			</g>
		</g>
		<g>
			<g>
				<g>
					<g>
						<g>
							<g>
								<g>
									<path class="st5" d="M2174.1,967.1c0,0-18.5,83.9-5.5,103.6c0,0,6.3,10.5,22.9,11.9l-3.7,53l74.8,5.2l12-174L2174.1,967.1z
										"/>
								</g>
							</g>
						</g>
					</g>
				</g>
			</g>
		</g>
		<g>
			<g>
				<g>
					<g>
						<g>
							<g>
								<g>
									<path class="st6" d="M2193.9,1035.4c0.3,0,0.6-0.2,0.7-0.5c0.1-0.4-0.1-0.7-0.5-0.8c-4.3-1.2-6.7-6.8-7.4-8.7
										c6.5-2.9,10.6-7,12.2-12.1c2.7-8.4-2.2-16.4-2.4-16.8c-0.2-0.3-0.6-0.4-0.9-0.2c-0.3,0.2-0.4,0.6-0.2,0.9
										c0,0.1,4.7,7.9,2.3,15.6c-1.6,4.9-5.6,8.8-12,11.5l-0.6,0.2l0.2,0.6c0.1,0.3,2.7,8.5,8.5,10.1
										C2193.8,1035.3,2193.9,1035.4,2193.9,1035.4z"/>
								</g>
							</g>
						</g>
					</g>
				</g>
			</g>
		</g>
		<g>
			<g>
				<g>
					<g>
						<g>
							<g>
								<g>
									<path class="st6" d="M2190,1104.2l1.6-21.5c0,0,36.2-1.4,58.6-15C2250.2,1067.7,2218.4,1096.2,2190,1104.2z"/>
								</g>
							</g>
						</g>
					</g>
				</g>
			</g>
		</g>
		<g>
			<g>
				<g>
					<g>
						<g>
							<g>
								<g>
									<path class="st15" d="M2238.2,1002.3c0.3,0,0.7-0.1,1-0.3c0.6-0.5,0.7-1.3,0.2-1.9c-0.2-0.2-16.4-19.3-33.3-7.5
										c-0.6,0.4-0.8,1.3-0.3,1.9c0.4,0.6,1.3,0.8,1.9,0.3c14.8-10.3,29,6.3,29.6,7C2237.5,1002.1,2237.8,1002.3,2238.2,1002.3z"
										/>
								</g>
							</g>
						</g>
					</g>
				</g>
			</g>
		</g>
		<g>
			<g>
				<g>
					<g>
						<g>
							<g>
								<g>
									<path class="st15" d="M2191.1,988.6c0.4,0,0.8-0.1,1.1-0.4c0.5-0.5,0.5-1.4,0-1.9c-0.5-0.5-11.9-11.7-20.1-5.6
										c-0.6,0.5-0.7,1.3-0.3,1.9c0.5,0.6,1.3,0.7,1.9,0.3c6.3-4.7,16.4,5.3,16.5,5.4C2190.5,988.5,2190.8,988.6,2191.1,988.6z"/>
								</g>
							</g>
						</g>
					</g>
				</g>
			</g>
		</g>
		<g>
			<g>
				<g>
					<g>
						<g>
							<g>
								<g>
									<path d="M2174.7,1005.5c-0.1,2.1,1.4,3.9,3.5,4.1c2.1,0.1,3.9-1.4,4.1-3.5c0.1-2.1-1.4-3.9-3.5-4.1
										C2176.6,1001.9,2174.8,1003.5,2174.7,1005.5z"/>
								</g>
							</g>
						</g>
					</g>
				</g>
			</g>
		</g>
		<g>
			<g>
				<g>
					<g>
						<g>
							<g>
								<g>
									<path d="M2213.6,1008.2c-0.1,2.1,1.4,3.9,3.5,4.1c2.1,0.1,3.9-1.4,4.1-3.5c0.1-2.1-1.4-3.9-3.5-4.1
										C2215.5,1004.5,2213.7,1006.1,2213.6,1008.2z"/>
								</g>
							</g>
						</g>
					</g>
				</g>
			</g>
		</g>
		<g>
			<g>
				<g>
					<g>
						<g>
							<g>
								<g>
									<path class="st5" d="M2255.5,1027.4c-0.8,11.8,8.1,22,19.8,22.8c11.8,0.8,22-8.1,22.8-19.8c0.8-11.8-8.1-22-19.8-22.8
										C2266.5,1006.8,2256.3,1015.7,2255.5,1027.4z"/>
								</g>
							</g>
						</g>
					</g>
				</g>
			</g>
		</g>
		<g>
			<g>
				<g>
					<g>
						<g>
							<g>
								<g>
									<path class="st6" d="M2277.5,1042.2c4.5,0.3,7.7-2.8,8.9-6.1c1.4-3.9,0.4-7.8-2.7-10.1c-4.4-3.2-8.7-1.8-11.1-0.5
										c1.1-2.2,2.6-3.8,4.5-4.7c4.3-2,9.4,0,9.4,0c0.4,0.1,0.7,0,0.9-0.4c0.1-0.3,0-0.7-0.4-0.9c-0.2-0.1-5.6-2.3-10.5,0
										c-2.8,1.3-4.8,3.8-6,7.4l-0.8,2.3l1.9-1.6c0.2-0.2,5.6-4.7,11.2-0.6c3.1,2.3,3.2,6,2.2,8.5c-1,2.6-3.5,5.6-7.6,5.2
										c-0.4,0-0.7,0.2-0.7,0.6c0,0.4,0.2,0.7,0.6,0.7C2277.4,1042.2,2277.4,1042.2,2277.5,1042.2z"/>
								</g>
							</g>
						</g>
					</g>
				</g>
			</g>
		</g>
		<g>
			<g>
				<g>
					<g>
						<g>
							<g>
								<path class="st5" d="M2174.1,967.1c0,0,8.7-32.3,52.8-32.9c44.1-0.6,47.7,32.7,47.7,32.7l-50.7,6.7l-46.6-6.5L2174.1,967.1z
									"/>
							</g>
						</g>
					</g>
				</g>
			</g>
		</g>
		<g>
			<g>
				<g>
					<g>
						<g>
							<g>
								<path class="st9" d="M2176,939.4c0,0,25.4,28.6,61.2,25c0,0,8.8,44,34.6,43.8c25.7-0.2,15.9-61.1,15.9-61.1
									s-46.5-22.8-49.6-23c-3-0.2-53.6-6.7-53.6-6.7L2176,939.4z"/>
							</g>
						</g>
					</g>
				</g>
			</g>
		</g>
		<g>
			<g>
				<g>
					<g>
						<g>
							<g>
								<g>
									<path class="st18" d="M2206.1,1019.9c1.1,0.1,1.2-1.6,0.1-1.7C2205.2,1018.1,2205,1019.8,2206.1,1019.9L2206.1,1019.9z"/>
								</g>
							</g>
						</g>
					</g>
				</g>
			</g>
		</g>
		<g>
			<g>
				<g>
					<g>
						<g>
							<g>
								<g>
									<path class="st18" d="M2211.1,1023.3c1.1,0.1,1.2-1.6,0.1-1.7C2210.1,1021.5,2210,1023.2,2211.1,1023.3L2211.1,1023.3z"/>
								</g>
							</g>
						</g>
					</g>
				</g>
			</g>
		</g>
		<g>
			<g>
				<g>
					<g>
						<g>
							<g>
								<g>
									<path class="st18" d="M2220.8,1017.8c1.1,0.1,1.2-1.6,0.1-1.7C2219.8,1016.1,2219.7,1017.8,2220.8,1017.8L2220.8,1017.8z"
										/>
								</g>
							</g>
						</g>
					</g>
				</g>
			</g>
		</g>
		<g>
			<g>
				<g>
					<g>
						<g>
							<g>
								<g>
									<path class="st18" d="M2228.4,1024.5c1.1,0.1,1.2-1.6,0.1-1.7C2227.4,1022.7,2227.3,1024.4,2228.4,1024.5L2228.4,1024.5z"
										/>
								</g>
							</g>
						</g>
					</g>
				</g>
			</g>
		</g>
		<g>
			<g>
				<g>
					<g>
						<g>
							<g>
								<g>
									<path class="st18" d="M2237.3,1016.9c1.1,0.1,1.2-1.6,0.1-1.7C2236.3,1015.1,2236.2,1016.8,2237.3,1016.9L2237.3,1016.9z"
										/>
								</g>
							</g>
						</g>
					</g>
				</g>
			</g>
		</g>
		<g>
			<g>
				<g>
					<g>
						<g>
							<g>
								<g>
									<path class="st18" d="M2239.5,1029.3c1.1,0.1,1.2-1.6,0.1-1.7C2238.5,1027.5,2238.4,1029.2,2239.5,1029.3L2239.5,1029.3z"
										/>
								</g>
							</g>
						</g>
					</g>
				</g>
			</g>
		</g>
		<g>
			<g>
				<g>
					<g>
						<g>
							<g>
								<g>
									<path class="st18" d="M2189.6,1013.8c1.1,0.1,1.2-1.6,0.1-1.7C2188.6,1012,2188.5,1013.7,2189.6,1013.8L2189.6,1013.8z"/>
								</g>
							</g>
						</g>
					</g>
				</g>
			</g>
		</g>
		<g>
			<g>
				<g>
					<g>
						<g>
							<g>
								<g>
									<path class="st18" d="M2182.8,1020.2c1.1,0.1,1.2-1.6,0.1-1.7C2181.8,1018.4,2181.7,1020.1,2182.8,1020.2L2182.8,1020.2z"
										/>
								</g>
							</g>
						</g>
					</g>
				</g>
			</g>
		</g>
		<g>
			<g>
				<g>
					<g>
						<g>
							<g>
								<g>
									<path class="st18" d="M2175.4,1016.6c1.1,0.1,1.2-1.6,0.1-1.7C2174.4,1014.9,2174.3,1016.5,2175.4,1016.6L2175.4,1016.6z"
										/>
								</g>
							</g>
						</g>
					</g>
				</g>
			</g>
		</g>
		<g>
			<g>
				<g>
					<g>
						<g>
							<g>
								<g>
									<path class="st18" d="M2174,1028.6c1.1,0.1,1.2-1.6,0.1-1.7C2173,1026.8,2172.9,1028.5,2174,1028.6L2174,1028.6z"/>
								</g>
							</g>
						</g>
					</g>
				</g>
			</g>
		</g>
		<g>
			<g>
				<g>
					<g>
						<g>
							<g>
								<g>
									<path class="st18" d="M2168.8,1021.1c1.1,0.1,1.2-1.6,0.1-1.7C2167.8,1019.4,2167.7,1021.1,2168.8,1021.1L2168.8,1021.1z"
										/>
								</g>
							</g>
						</g>
					</g>
				</g>
			</g>
		</g>
		<g>
			<g>
				<g>
					<g>
						<g>
							<g>
								<g>
									<path class="st18" d="M2170.9,1010.8c1.1,0.1,1.2-1.6,0.1-1.7C2169.9,1009,2169.8,1010.7,2170.9,1010.8L2170.9,1010.8z"/>
								</g>
							</g>
						</g>
					</g>
				</g>
			</g>
		</g>
		<g>
			<g>
				<g>
					<g>
						<g>
							<g>
								<g>
									<path class="st18" d="M2216.8,1029c1.1,0.1,1.2-1.6,0.1-1.7C2215.8,1027.3,2215.7,1028.9,2216.8,1029L2216.8,1029z"/>
								</g>
							</g>
						</g>
					</g>
				</g>
			</g>
		</g>
		<g>
			<g>
				<g>
					<g>
						<g>
							<path class="st25" d="M2397.8,1484.7c8.4,15.7,16.3,31.8,23.8,48.4H2065c9.6-17.7,17.1-30.4,18.5-33.8
								c2.8-6.4,9.3-11.8,10.2-16.7c0.2-1.2,0.1-1.9-0.2-2.9c-2.7-10.6-27.5-69.1-46.9-124.6c-156.2,265.9-49.2,84-88.2,150.1
								c-64.3-20.1-102.5-35.4-117.5-41.8c-5-2.1-7.5-3.3-7.5-3.3c66.7-121.8,155.5-257.4,202.3-303.1
								c39.1-26.9,120.9-36.3,166.9-32c49.5-0.9,94.1-2.6,137.9,5.4c-0.1,0.1,2,1.2,31.4,46.7c7.9,12.1,40.5,63.2,46.4,76.5
								c12.4,27,8,62.7-7.1,87.7C2401,1347.7,2399.7,1475.6,2397.8,1484.7z"/>
						</g>
					</g>
				</g>
			</g>
		</g>
		<g>
			<g>
				<g>
					<g>
						<g>
							<g>
								<g>
									<g>
										<g>
											<path class="st10" d="M2062,1178.2c0.4,0,0.8-0.2,1.1-0.5c12.8-17,33.6-23.9,33.8-24c0.7-0.2,1.1-1,0.8-1.7
												c-0.2-0.7-1-1.1-1.7-0.9c-0.9,0.3-21.9,7.2-35.1,24.9c-0.4,0.6-0.3,1.4,0.3,1.9C2061.5,1178.2,2061.8,1178.2,2062,1178.2
												z"/>
										</g>
									</g>
								</g>
							</g>
						</g>
					</g>
				</g>
			</g>
			<g>
				<g>
					<g>
						<g>
							<g>
								<g>
									<g>
										<g>
											<path class="st10" d="M2064.5,1190.5c0.4,0,0.8-0.2,1.1-0.5c12.8-17,33.6-23.9,33.8-24c0.7-0.2,1.1-1,0.8-1.7
												c-0.2-0.7-1-1.1-1.7-0.9c-0.9,0.3-21.9,7.2-35.1,24.9c-0.4,0.6-0.3,1.4,0.3,1.9C2064,1190.4,2064.3,1190.5,2064.5,1190.5
												z"/>
										</g>
									</g>
								</g>
							</g>
						</g>
					</g>
				</g>
			</g>
		</g>
		<g>
			<g>
				<g>
					<g>
						<g>
							<path d="M2128.5,1486.3c-0.1,0-0.1,0-0.2,0l-34.2-3.6c-0.9-0.1-1.5-0.9-1.4-1.7c0.1-0.9,0.9-1.5,1.7-1.4l34.2,3.6
								c0.9,0.1,1.5,0.9,1.4,1.7C2129.9,1485.7,2129.3,1486.3,2128.5,1486.3z"/>
						</g>
					</g>
				</g>
			</g>
		</g>
		<g>
			<g>
				<g>
					<g>
						<g>
							<path d="M2399.4,1484.3c1.8,2.9,11.6,19.3,24.9,48.8h-3.5c-14.1-31.1-24.2-47.2-24.4-47.5l-0.3-0.4l0-0.5l0.3-4.3l0.2-3
								l4.2-56.2l4-54.2l0.4-5l1.2-15.7l0.2-0.3c44.3-67.4-8.7-122.2-9.2-122.7c-0.6-0.6-0.6-1.6,0-2.2c0.6-0.6,1.6-0.6,2.2,0
								c0,0,0.1,0.1,0.2,0.2c3.4,3.6,53.7,58.7,9.6,126.1l-9.6,130.4l-0.2,3L2399.4,1484.3z"/>
						</g>
					</g>
				</g>
			</g>
		</g>
		<g>
			<g>
				<g>
					<g>
						<g>
							<g>
								<g>
									<g>
										<path class="st7" d="M2203.3,1047c-0.3-0.1-21.7-1.8-21.7-1.8s2.2,9,10.1,9.7C2199.7,1055.5,2203.3,1047,2203.3,1047z"/>
									</g>
								</g>
							</g>
						</g>
					</g>
				</g>
			</g>
		</g>
		<g>
			<g>
				<path d="M2096,1481.3l-0.4,0.7c0,0.1-0.2,0.3-0.5,0.8c-2.4,3.9-12.9,21-28.2,50.3h-3.6c16-30.7,26.9-48.5,29.2-52.1l-33-88.3
					l0.7-0.7l1.8-1.9l33.5,89.5L2096,1481.3z"/>
			</g>
		</g>
		<g>
			<g>
				<path class="st25" d="M1967.1,1533h-136.7c-0.1-0.3-0.2-0.6-0.2-0.9c-9.9-42.5,3.4-72.1,3.4-72.1l10-2.3l56.7-12.9
					c0,0,58.3,22,57.1,41.5c-0.2,2.6,0.5,7.5,1.8,14.1c0.2,0.8,0.3,1.7,0.5,2.6C1961.5,1511.2,1964,1521.6,1967.1,1533z"/>
			</g>
		</g>
		<g>
			<g>
				<path class="st21" d="M2150.3,1125.1c0,0,145.1,169,155,189.8c0,0,9-144.5,8.6-188.4C2313.9,1126.5,2249.4,1114.2,2150.3,1125.1
					z"/>
			</g>
		</g>
		<g>
			<g>
				<g>
					<g>
						<polygon class="st23" points="2282,1124.6 2265.6,1098.5 2209.7,1114.9 2189.9,1105.8 2177,1127.8 2201.1,1147.9 
							2210.2,1136.2 2218.2,1151.9 						"/>
					</g>
				</g>
			</g>
		</g>
		<g>
			<g>
				<path class="st26" d="M2150.3,1125.1c0,0,17.4,63.3,28.6,83.6l41.1,20.3l-0.8,32l86,53.9
					C2305.3,1315,2201.3,1171.4,2150.3,1125.1z"/>
			</g>
		</g>
		<g>
			<g>
				<path class="st26" d="M2313.9,1126.5c0,0,23.9,55.9,25,63.9l-14,29.6l11,17.5l-30.7,77.4
					C2305.3,1315,2306.9,1169.9,2313.9,1126.5z"/>
			</g>
		</g>
		<g>
			<g>
				<path d="M2306.6,1315l-2.6,0c0-1.2,1.1-123.4,8.6-188.6l2.5,0.3C2307.7,1191.7,2306.6,1313.8,2306.6,1315z"/>
			</g>
		</g>
		<g>
			<g>
				<polygon class="st26" points="2406.7,1345.9 2198.8,1359.3 2405.3,1361.9 				"/>
			</g>
		</g>
		<g>
			<g>
				<path d="M2329.6,1533h-2.6l-12.9-122.2l-5.3-50.1l-0.9-8.4l-1.9-17.8l-2-19c-0.3-0.4-0.8-1.2-1.6-2.3
					c-5-6.9-19.5-26.8-38.3-51.6c-3.2-4.3-6.6-8.7-10.1-13.2c-30.8-40.3-69.5-88.6-96.6-114.8c-1.5-1.5-3-2.9-4.5-4.2
					c-0.7-0.7-1.4-1.3-2.1-1.9c-0.5-0.5-1-0.9-1.5-1.3l0.9-1v0l0.8-1c0.3,0.3,0.6,0.5,0.9,0.8c0,0,0,0,0,0c0.9,0.8,1.8,1.6,2.7,2.5
					c30,27.7,77.1,87.4,110.8,131.9c18.5,24.5,33,44.3,38.4,51.7c0.5,0.7,0.9,1.3,1.3,1.8c0,0.1,0.1,0.1,0.1,0.1
					c0.2,0.2,0.3,0.4,0.4,0.6c0.3,0.4,0.4,0.6,0.5,0.7l0.2,0.3l0,0.3l0,0.1v0l1.8,17.3l2.1,19.8l0.9,8.6l4.9,46.4L2329.6,1533z"/>
			</g>
		</g>
	</g>
	<g>
		<g>
			<g>
				<g>
					<path class="st21" d="M1379.1,1113.3l-11.4,387.4L1225.3,1124c21.7-6.1,38.2-10.6,38.2-10.6H1379.1z"/>
				</g>
			</g>
		</g>
		<g>
			<g>
				<g>
					<path class="st25" d="M1707,1533h-675.7c7.4-45.8,46.2-287.6,62.3-329.3c21.9-54.8,72-71.3,128.5-87.2
						c146.5,386.6,145.5,383.8,145.5,383.9c0,0,0,0.1,0.1,0.1h0c0.1-0.2,0,0.1,0.7-1.8c0.1,0-1.7,4.5,144.8-382.2
						c31.8,9,74.1,26.9,105,48.2c0.8,0.8,34.4,21.9,40.5,45.5C1669.6,1252.1,1701,1488.4,1707,1533z"/>
				</g>
			</g>
		</g>
		<g>
			<g>
				<g>
					<path class="st21" d="M1367.6,1113.3v387.4l145.5-384.2c-18.1-1.4-27.8,1.3-27.8,1.3L1367.6,1113.3z"/>
				</g>
			</g>
		</g>
		<g>
			<g>
				<g>
					<polygon class="st10" points="1370.3,1498.8 1369.8,1533 1364.5,1533 1365,1498.7 1367,1498.7 1367,1498.7 1367.6,1498.7 
						1367.8,1498.7 1368.4,1498.8 1368.4,1498.8 					"/>
				</g>
			</g>
		</g>
		<g>
			<g>
				<path class="st5" d="M1439,951.1l-1.8-21.8c-1.9-22.2-17.5-41.1-39.2-46.5c-37.4-9.4-76.8,11.4-76.8,11.4s-12.7,23-13.9,25.7
					c-1.2,2.7,15.8-7.2,15.8-7.2L1439,951.1z"/>
			</g>
			<g>
				<g>
					<g>
						<g>
							<path class="st5" d="M1444.7,1018.7l-7.8-91.7l-120.4-25.3l5.7,112.1l3.4,28.8c0,0-3.2,59.4,0.5,71.5
								c3.8,12.1,23.6,35.1,56.4,32.4c10.3-0.9,19.3-3.4,26.7-6.5c15.2-6.3,23.6-22.6,20.2-38.7l-9.1-43.3
								C1448.8,1051.3,1444.7,1018.7,1444.7,1018.7z"/>
						</g>
					</g>
				</g>
			</g>
			<g>
				<g>
					<g>
						<g>
							<path class="st13" d="M1366,975.2c0.3-0.1,0.6-0.4,0.7-0.8c0.3-0.9,8.7-23.1,27.7-18c0.7,0.2,1.5-0.2,1.7-1
								c0.2-0.7-0.2-1.5-1-1.7c-21.4-5.8-30.9,19.5-30.9,19.7c-0.3,0.7,0.1,1.5,0.8,1.8C1365.4,975.4,1365.7,975.4,1366,975.2z"/>
						</g>
					</g>
				</g>
			</g>
			<g>
				<g>
					<g>
						<g>
							<path class="st13" d="M1420.8,951.9c0.3,0.1,0.6,0.1,1-0.1c0.1-0.1,14.1-6.6,18.9,0.5c0.4,0.6,1.3,0.8,1.9,0.4
								c0.6-0.4,0.8-1.3,0.4-1.9c-6.1-9-21.7-1.7-22.3-1.4c-0.7,0.3-1,1.1-0.6,1.8C1420.1,951.5,1420.4,951.8,1420.8,951.9z"/>
						</g>
					</g>
				</g>
			</g>
			<g>
				<g>
					<g>
						<g>
							<path d="M1389.5,980.1c-0.2-2.3-2.2-3.9-4.4-3.7c-2.3,0.2-3.9,2.2-3.7,4.4c0.2,2.3,2.2,3.9,4.4,3.8
								C1388,984.3,1389.7,982.3,1389.5,980.1z"/>
						</g>
					</g>
				</g>
			</g>
			<g>
				<g>
					<g>
						<g>
							<path d="M1432.7,972.3c-0.2-2.3-2.2-3.9-4.4-3.7c-2.3,0.2-3.9,2.2-3.8,4.4c0.2,2.3,2.2,3.9,4.4,3.7
								C1431.2,976.5,1432.9,974.6,1432.7,972.3z"/>
						</g>
					</g>
				</g>
			</g>
			<g>
				<g>
					<g>
						<g>
							<path class="st9" d="M1279.9,925.3c-6.2,31.1,10.1,45.9,11.2,54.9c1.1,9,0.1,70.5,42.5,62.4l3-101.7l-18.3-38.8l2.6-9
								C1321,892.9,1286.2,894.2,1279.9,925.3z"/>
						</g>
					</g>
				</g>
			</g>
			<g>
				<g>
					<g>
						<g>
							<path class="st5" d="M1333.1,1008.2c13.6-1.1,23.6-13.1,22.5-26.7c-1.1-13.6-13.1-23.6-26.7-22.5
								c-13.6,1.1-23.6,13.1-22.5,26.7C1307.5,999.2,1319.5,1009.3,1333.1,1008.2z"/>
						</g>
					</g>
				</g>
			</g>
			<g>
				<g>
					<g>
						<g>
							<path class="st6" d="M1323.9,981.5c6.5-4.9,12.9,0.3,13.1,0.5l1.9,1.6l-0.8-2.3c-1.4-4.1-3.8-7-7-8.4
								c-5.6-2.5-11.8,0.1-12.1,0.2c-0.3,0.2-0.5,0.6-0.4,0.9c0.1,0.3,0.6,0.5,0.9,0.4c0.1,0,5.9-2.5,11-0.2c2.3,1,4.2,2.9,5.5,5.6
								c-2.7-1.4-7.8-3.2-12.9,0.6c-3.5,2.6-4.6,7.1-2.9,11.6c1.4,3.7,5.2,7.3,10.3,6.9c0,0,0.1,0,0.1,0c0.4,0,0.7-0.4,0.6-0.7
								c0-0.4-0.4-0.6-0.7-0.6c-0.1,0-0.1,0-0.1,0c-4.7,0.4-7.7-3-8.9-6C1320.3,988.5,1320.3,984.2,1323.9,981.5z"/>
						</g>
					</g>
				</g>
			</g>
			<g>
				<g>
					<g>
						<g>
							<path class="st6" d="M1420.5,1057.8c0,0-43.7,12.7-68.8-22.2c0,0,6.6,54.7,75.5,54.1L1420.5,1057.8z"/>
						</g>
					</g>
				</g>
			</g>
			<g>
				<g>
					<g>
						<g>
							<path class="st6" d="M1405.6,1006.1c0.1,0.3,0.4,0.4,0.7,0.4c0.1,0,0.1,0,0.2-0.1l14.3-6.1l-7.3-33c-0.1-0.4-0.4-0.6-0.8-0.5
								c-0.4,0.1-0.6,0.4-0.5,0.8l7.1,31.8l-13.3,5.7C1405.6,1005.3,1405.5,1005.7,1405.6,1006.1z"/>
						</g>
					</g>
				</g>
			</g>
			<g>
				<g>
					<polygon class="st5" points="1326.1,1003.6 1325.3,1050.2 1341.6,1050.2 1337.7,1003.9 					"/>
				</g>
			</g>
			<g>
				<path class="st9" d="M1395.8,856.5c-30.7,13-89.2,16.6-103.1,47.2c-14,30.6,44.2,38.6,44.2,38.6s103.9-15,108.2-40
					c4.4-25-20.2-23.6-20.2-23.6S1426.4,843.5,1395.8,856.5z"/>
			</g>
			<g>
				<path class="st9" d="M1354.9,935.2c12.2-7.7-24.8-11.6-25.8-11c-1.1,0.6-21.2,13.2-18.4,12.5c2.7-0.7,23.6-0.9,23.6-0.9
					l1.9,22.5c0,0,9.9,12.5,8.4,29.6c0,0,6.6,1.8,7.2-3.6C1352.5,979.1,1342.7,943,1354.9,935.2z"/>
			</g>
		</g>
		<g>
			<g>
				<g>
					<path class="st26" d="M1487.2,1267.5l18.9,78.7L1381.5,1533h-13.8v-34.3c0,0,0,0,0,0c0,0,0,0,0,0c0-0.1,0.1-0.2,0.1-0.3
						c16.6-34.2,93.5-342.5,103.1-381.1c0.6-2.6,1-4,1-4l41.3,3.2l22.8,160.4L1487.2,1267.5z"/>
				</g>
			</g>
		</g>
		<g>
			<g>
				<g>
					<path class="st26" d="M1367.7,1498.7v34.3h-13.8l-124.6-186.9l18.9-78.7l-32.5,6.3l-16.3,3.1l3.6-25.2l19.2-135.2l41.3-3.2
						C1263.4,1113.3,1350.2,1463.6,1367.7,1498.7C1367.6,1498.7,1367.6,1498.7,1367.7,1498.7
						C1367.6,1498.7,1367.7,1498.7,1367.7,1498.7z"/>
				</g>
			</g>
		</g>
		<g>
			<g>
				<g>
					<polygon class="st10" points="1548.4,1533 1543.1,1533 1523.9,1403.2 1529.1,1402.4 					"/>
				</g>
			</g>
		</g>
		<g>
			<g>
				<g>
					<polygon class="st10" points="1211.4,1403.2 1193.2,1526.7 1192.8,1529.4 1192.4,1532.1 1192.2,1533 1186.9,1533 
						1187.8,1527.2 1188.2,1524.4 1188.6,1521.7 1206.2,1402.4 					"/>
				</g>
			</g>
		</g>
		<g>
			<g>
				<g>
					<polygon class="st21" points="1309.2,1173.4 1429.4,1173.4 1429.4,1122.8 1367.6,1133.3 1309.2,1122.8 					"/>
				</g>
			</g>
		</g>
		<g>
			<g>
				<g>
					<polygon class="st23" points="1367,1127.8 1429.3,1090.6 1449.3,1115.6 1385.9,1163.9 1367.1,1141.4 1367,1141.5 					"/>
				</g>
			</g>
		</g>
		<g>
			<g>
				<g>
					<polygon class="st23" points="1367,1127.8 1322.2,1097.5 1304.5,1113.3 1348.1,1163.9 1367,1141.4 1367,1141.5 					"/>
				</g>
			</g>
		</g>
	</g>
	<path class="st7" d="M1396.2,1012.4c0,0,9.8,11.9,23.6,5L1396.2,1012.4z"/>
	<g>
		<g>
			<g>
				<g>
					<g>
						<g>
							<rect x="1269.8" y="504.5" class="st27" width="40.4" height="216"/>
						</g>
					</g>
				</g>
				<g>
					<g>
						<g>
							<g>
								<rect x="1269.8" y="528.9" class="st28" width="40.4" height="14.8"/>
							</g>
						</g>
					</g>
				</g>
				<g>
					<g>
						<g>
							<g>
								<rect x="1269.8" y="685.9" class="st28" width="40.4" height="14.8"/>
							</g>
						</g>
					</g>
				</g>
				<g>
					<g>
						<g>
							<polygon class="st10" points="1289.8,609.1 1281.3,625.8 1283.7,627.1 1292.2,610.4 							"/>
						</g>
					</g>
				</g>
				<g>
					<g>
						<g>
							<polygon class="st10" points="1293.4,619.8 1283.7,637.5 1286,638.8 1295.8,621.2 							"/>
						</g>
					</g>
				</g>
			</g>
			<g>
				<g>
					<g>
						<g>
							<rect x="1229.4" y="504.5" class="st29" width="40.4" height="216"/>
						</g>
					</g>
				</g>
				<g>
					<g>
						<g>
							<g>
								<rect x="1229.4" y="528.9" class="st30" width="40.4" height="14.8"/>
							</g>
						</g>
					</g>
				</g>
				<g>
					<g>
						<g>
							<g>
								<rect x="1229.4" y="685.9" class="st30" width="40.4" height="14.8"/>
							</g>
						</g>
					</g>
				</g>
				<g>
					<g>
						<g>
							<polygon class="st10" points="1250.6,646.7 1242.1,663.5 1244.5,664.7 1253,648 							"/>
						</g>
					</g>
				</g>
				<g>
					<g>
						<g>
							<polygon class="st10" points="1254.2,657.5 1244.5,675.1 1246.8,676.5 1256.6,658.8 							"/>
						</g>
					</g>
				</g>
			</g>
			<g>
				<g>
					<g>
						<g>
							<rect x="1189" y="504.5" class="st31" width="40.4" height="216"/>
						</g>
					</g>
				</g>
				<g>
					<g>
						<g>
							<g>
								<rect x="1189" y="528.9" class="st30" width="40.4" height="14.8"/>
							</g>
						</g>
					</g>
				</g>
				<g>
					<g>
						<g>
							<g>
								<rect x="1189" y="685.9" class="st30" width="40.4" height="14.8"/>
							</g>
						</g>
					</g>
				</g>
				<g>
					<g>
						<g>
							<polygon class="st10" points="1209.1,551.1 1200.5,567.8 1202.9,569.1 1211.5,552.4 							"/>
						</g>
					</g>
				</g>
				<g>
					<g>
						<g>
							<polygon class="st10" points="1212.7,561.8 1202.9,579.5 1205.3,580.9 1215,563.2 							"/>
						</g>
					</g>
				</g>
			</g>
			<g>
				<g>
					<g>
						<g>
							<polygon class="st1" points="1154.1,514 1047.4,700.7 1082.3,721.3 1189,534.6 							"/>
						</g>
					</g>
				</g>
				<g>
					<g>
						<g>
							<polygon class="st32" points="1142,535.1 1134.8,547.8 1169.7,568.5 1176.9,555.7 							"/>
						</g>
					</g>
				</g>
				<g>
					<g>
						<g>
							<polygon class="st32" points="1064.5,670.8 1057.2,683.5 1092.1,704.2 1099.4,691.4 							"/>
						</g>
					</g>
				</g>
				<g>
					<g>
						<g>
							<polygon class="st10" points="1104,642.2 1088.4,652.3 1089.8,654.6 1105.5,644.5 							"/>
						</g>
					</g>
				</g>
				<g>
					<g>
						<g>
							<polygon class="st10" points="1101.8,653.3 1084.7,663.6 1086,666 1103.2,655.7 							"/>
						</g>
					</g>
				</g>
			</g>
			<g>
				<g>
					<g>
						<rect x="872.3" y="720.5" class="st33" width="478.3" height="13.3"/>
					</g>
				</g>
			</g>
		</g>
		<g>
			<g>
				<g>
					<path class="st34" d="M935.3,585.2c0.5-6.7,4.7-80.4,18.9-136.5c0,0,26,100.3,23.5,139.6c-2.5,39.3-38.5,20.7-38.5,20.7
						L935.3,585.2z"/>
				</g>
			</g>
			<g>
				<g>
					<path class="st35" d="M956.9,596.8c0,0,32.5-77.2,90.2-130.2l-59.3,160.5l-61.3,2.3l-44.7-109.8
						C881.8,519.6,936.4,539.3,956.9,596.8z"/>
				</g>
			</g>
			<g>
				<g>
					<path class="st36" d="M1003.6,720.5h-88.2c-4.9,0-9-4-9-9v-105h106.1v105C1012.5,716.5,1008.5,720.5,1003.6,720.5z"/>
				</g>
			</g>
		</g>
	</g>
</g>
</svg>
